<mxfile host="app.diagrams.net" modified="2021-05-27T21:39:15.407Z" agent="5.0 (Windows NT 10.0; Win64; x64) AppleWebKit/537.36 (KHTML, like Gecko) Chrome/90.0.4430.212 Safari/537.36" etag="Pb1W65of8LsAmKIvxFRi" version="14.7.0" type="github">
  <diagram id="7-FiAdbV3VXmVIe_V4c8" name="Page-1">
    <mxGraphModel dx="1350" dy="1530" grid="1" gridSize="10" guides="1" tooltips="1" connect="1" arrows="1" fold="1" page="1" pageScale="1" pageWidth="850" pageHeight="1100" math="0" shadow="0">
      <root>
        <mxCell id="0" />
        <mxCell id="1" parent="0" />
        <mxCell id="awtcfTM-HQqrUrpMVx-B-1" value="TicTacToeBoard" style="swimlane;fontStyle=1;align=center;verticalAlign=top;childLayout=stackLayout;horizontal=1;startSize=26;horizontalStack=0;resizeParent=1;resizeParentMax=0;resizeLast=0;collapsible=1;marginBottom=0;" parent="1" vertex="1">
          <mxGeometry x="140" y="50" width="220" height="130" as="geometry" />
        </mxCell>
        <mxCell id="awtcfTM-HQqrUrpMVx-B-2" value="string board[]&#xa;" style="text;strokeColor=none;fillColor=none;align=left;verticalAlign=top;spacingLeft=4;spacingRight=4;overflow=hidden;rotatable=0;points=[[0,0.5],[1,0.5]];portConstraint=eastwest;" parent="awtcfTM-HQqrUrpMVx-B-1" vertex="1">
          <mxGeometry y="26" width="220" height="24" as="geometry" />
        </mxCell>
        <mxCell id="awtcfTM-HQqrUrpMVx-B-3" value="" style="line;strokeWidth=1;fillColor=none;align=left;verticalAlign=middle;spacingTop=-1;spacingLeft=3;spacingRight=3;rotatable=0;labelPosition=right;points=[];portConstraint=eastwest;" parent="awtcfTM-HQqrUrpMVx-B-1" vertex="1">
          <mxGeometry y="50" width="220" height="12" as="geometry" />
        </mxCell>
        <mxCell id="awtcfTM-HQqrUrpMVx-B-4" value="void AddX()&#xa;void AddO()&#xa;number CheckVic()&#xa;void Play()" style="text;strokeColor=none;fillColor=none;align=left;verticalAlign=top;spacingLeft=4;spacingRight=4;overflow=hidden;rotatable=0;points=[[0,0.5],[1,0.5]];portConstraint=eastwest;" parent="awtcfTM-HQqrUrpMVx-B-1" vertex="1">
          <mxGeometry y="62" width="220" height="68" as="geometry" />
        </mxCell>
        <mxCell id="DzFFAU3qwcf-lBZUktXT-4" value="Play()" style="shape=umlFrame;whiteSpace=wrap;html=1;width=120;height=30;boundedLbl=1;verticalAlign=middle;align=left;spacingLeft=5;" vertex="1" parent="1">
          <mxGeometry x="465" y="350" width="420" height="570" as="geometry" />
        </mxCell>
        <mxCell id="DzFFAU3qwcf-lBZUktXT-9" style="edgeStyle=orthogonalEdgeStyle;rounded=0;orthogonalLoop=1;jettySize=auto;html=1;exitX=0.5;exitY=1;exitDx=0;exitDy=0;entryX=0.5;entryY=0;entryDx=0;entryDy=0;" edge="1" parent="1" source="DzFFAU3qwcf-lBZUktXT-5" target="DzFFAU3qwcf-lBZUktXT-8">
          <mxGeometry relative="1" as="geometry" />
        </mxCell>
        <mxCell id="DzFFAU3qwcf-lBZUktXT-5" value="" style="ellipse;fillColor=#000000;strokeColor=none;" vertex="1" parent="1">
          <mxGeometry x="620" y="360" width="30" height="30" as="geometry" />
        </mxCell>
        <mxCell id="DzFFAU3qwcf-lBZUktXT-11" style="edgeStyle=orthogonalEdgeStyle;rounded=0;orthogonalLoop=1;jettySize=auto;html=1;exitX=0.5;exitY=1;exitDx=0;exitDy=0;entryX=0.5;entryY=0;entryDx=0;entryDy=0;" edge="1" parent="1" source="DzFFAU3qwcf-lBZUktXT-6" target="DzFFAU3qwcf-lBZUktXT-48">
          <mxGeometry relative="1" as="geometry">
            <mxPoint x="636.8100000000004" y="592.5" as="targetPoint" />
          </mxGeometry>
        </mxCell>
        <mxCell id="DzFFAU3qwcf-lBZUktXT-12" value="Yes" style="edgeLabel;html=1;align=center;verticalAlign=middle;resizable=0;points=[];" vertex="1" connectable="0" parent="DzFFAU3qwcf-lBZUktXT-11">
          <mxGeometry x="-0.7" y="-3" relative="1" as="geometry">
            <mxPoint as="offset" />
          </mxGeometry>
        </mxCell>
        <mxCell id="DzFFAU3qwcf-lBZUktXT-53" style="edgeStyle=orthogonalEdgeStyle;rounded=0;orthogonalLoop=1;jettySize=auto;html=1;exitX=0;exitY=0.5;exitDx=0;exitDy=0;entryX=0.5;entryY=0;entryDx=0;entryDy=0;" edge="1" parent="1" source="DzFFAU3qwcf-lBZUktXT-6" target="DzFFAU3qwcf-lBZUktXT-14">
          <mxGeometry relative="1" as="geometry" />
        </mxCell>
        <mxCell id="DzFFAU3qwcf-lBZUktXT-54" value="No" style="edgeLabel;html=1;align=center;verticalAlign=middle;resizable=0;points=[];" vertex="1" connectable="0" parent="DzFFAU3qwcf-lBZUktXT-53">
          <mxGeometry x="-0.8717" y="4" relative="1" as="geometry">
            <mxPoint as="offset" />
          </mxGeometry>
        </mxCell>
        <mxCell id="DzFFAU3qwcf-lBZUktXT-6" value="If (Won != 0)" style="rhombus;" vertex="1" parent="1">
          <mxGeometry x="572.5" y="470" width="125" height="60" as="geometry" />
        </mxCell>
        <mxCell id="DzFFAU3qwcf-lBZUktXT-10" style="edgeStyle=orthogonalEdgeStyle;rounded=0;orthogonalLoop=1;jettySize=auto;html=1;exitX=0.5;exitY=1;exitDx=0;exitDy=0;entryX=0.5;entryY=0;entryDx=0;entryDy=0;" edge="1" parent="1" source="DzFFAU3qwcf-lBZUktXT-8" target="DzFFAU3qwcf-lBZUktXT-6">
          <mxGeometry relative="1" as="geometry" />
        </mxCell>
        <mxCell id="DzFFAU3qwcf-lBZUktXT-8" value="Bool Won = 0;" style="html=1;align=center;verticalAlign=top;rounded=1;absoluteArcSize=1;arcSize=10;dashed=0;" vertex="1" parent="1">
          <mxGeometry x="565" y="410" width="140" height="40" as="geometry" />
        </mxCell>
        <mxCell id="DzFFAU3qwcf-lBZUktXT-14" value="" style="ellipse;html=1;shape=endState;fillColor=#000000;strokeColor=#000000;" vertex="1" parent="1">
          <mxGeometry x="480" y="820" width="30" height="30" as="geometry" />
        </mxCell>
        <mxCell id="DzFFAU3qwcf-lBZUktXT-18" value="AddO()" style="shape=umlFrame;whiteSpace=wrap;html=1;width=120;height=30;boundedLbl=1;verticalAlign=middle;align=left;spacingLeft=5;" vertex="1" parent="1">
          <mxGeometry x="920" width="410" height="310" as="geometry" />
        </mxCell>
        <mxCell id="DzFFAU3qwcf-lBZUktXT-19" style="edgeStyle=orthogonalEdgeStyle;rounded=0;orthogonalLoop=1;jettySize=auto;html=1;exitX=0.5;exitY=1;exitDx=0;exitDy=0;entryX=0.5;entryY=0;entryDx=0;entryDy=0;" edge="1" parent="1" source="DzFFAU3qwcf-lBZUktXT-29" target="DzFFAU3qwcf-lBZUktXT-22">
          <mxGeometry relative="1" as="geometry">
            <mxPoint x="1085" y="100" as="sourcePoint" />
          </mxGeometry>
        </mxCell>
        <mxCell id="DzFFAU3qwcf-lBZUktXT-20" value="Yes" style="edgeStyle=orthogonalEdgeStyle;rounded=0;orthogonalLoop=1;jettySize=auto;html=1;entryX=0.5;entryY=0;entryDx=0;entryDy=0;" edge="1" parent="1" source="DzFFAU3qwcf-lBZUktXT-22" target="DzFFAU3qwcf-lBZUktXT-28">
          <mxGeometry x="-0.5247" relative="1" as="geometry">
            <mxPoint x="1220" y="330" as="targetPoint" />
            <Array as="points">
              <mxPoint x="1220" y="186" />
            </Array>
            <mxPoint as="offset" />
          </mxGeometry>
        </mxCell>
        <mxCell id="DzFFAU3qwcf-lBZUktXT-21" value="No" style="edgeStyle=orthogonalEdgeStyle;rounded=0;orthogonalLoop=1;jettySize=auto;html=1;entryX=0.5;entryY=0;entryDx=0;entryDy=0;" edge="1" parent="1" source="DzFFAU3qwcf-lBZUktXT-22" target="DzFFAU3qwcf-lBZUktXT-32">
          <mxGeometry x="-0.8095" relative="1" as="geometry">
            <mxPoint x="980" y="240" as="targetPoint" />
            <Array as="points">
              <mxPoint x="980" y="186" />
            </Array>
            <mxPoint as="offset" />
          </mxGeometry>
        </mxCell>
        <mxCell id="DzFFAU3qwcf-lBZUktXT-22" value="if (spot !&gt; &amp;&amp; spot !&lt; 1)&#xa;elIf (board[spot - 1] == void)" style="rhombus;" vertex="1" parent="1">
          <mxGeometry x="1001" y="141" width="189" height="89" as="geometry" />
        </mxCell>
        <mxCell id="DzFFAU3qwcf-lBZUktXT-23" style="edgeStyle=orthogonalEdgeStyle;rounded=0;orthogonalLoop=1;jettySize=auto;html=1;exitX=0.5;exitY=1;exitDx=0;exitDy=0;" edge="1" parent="1" source="DzFFAU3qwcf-lBZUktXT-22" target="DzFFAU3qwcf-lBZUktXT-22">
          <mxGeometry relative="1" as="geometry" />
        </mxCell>
        <mxCell id="DzFFAU3qwcf-lBZUktXT-24" value="" style="ellipse;html=1;shape=endState;fillColor=#000000;strokeColor=#000000;" vertex="1" parent="1">
          <mxGeometry x="1090" y="260" width="30" height="30" as="geometry" />
        </mxCell>
        <mxCell id="DzFFAU3qwcf-lBZUktXT-25" style="edgeStyle=orthogonalEdgeStyle;rounded=0;orthogonalLoop=1;jettySize=auto;html=1;exitX=0.5;exitY=1;exitDx=0;exitDy=0;entryX=0.5;entryY=0;entryDx=0;entryDy=0;" edge="1" parent="1" source="DzFFAU3qwcf-lBZUktXT-26" target="DzFFAU3qwcf-lBZUktXT-29">
          <mxGeometry relative="1" as="geometry" />
        </mxCell>
        <mxCell id="DzFFAU3qwcf-lBZUktXT-26" value="" style="ellipse;fillColor=#000000;strokeColor=none;" vertex="1" parent="1">
          <mxGeometry x="1071" y="10" width="30" height="30" as="geometry" />
        </mxCell>
        <mxCell id="DzFFAU3qwcf-lBZUktXT-27" style="edgeStyle=orthogonalEdgeStyle;rounded=0;orthogonalLoop=1;jettySize=auto;html=1;exitX=0.5;exitY=1;exitDx=0;exitDy=0;entryX=1;entryY=0.5;entryDx=0;entryDy=0;" edge="1" parent="1" source="DzFFAU3qwcf-lBZUktXT-28" target="DzFFAU3qwcf-lBZUktXT-24">
          <mxGeometry relative="1" as="geometry" />
        </mxCell>
        <mxCell id="DzFFAU3qwcf-lBZUktXT-28" value="board[spot - 1] = &quot;O&quot;" style="html=1;align=center;verticalAlign=top;rounded=1;absoluteArcSize=1;arcSize=10;dashed=0;" vertex="1" parent="1">
          <mxGeometry x="1150" y="211" width="140" height="40" as="geometry" />
        </mxCell>
        <mxCell id="DzFFAU3qwcf-lBZUktXT-29" value="number spot = 0;&lt;br&gt;spot = Input(&quot;Enter a number 1 - 9&quot;)" style="html=1;align=center;verticalAlign=top;rounded=1;absoluteArcSize=1;arcSize=10;dashed=0;" vertex="1" parent="1">
          <mxGeometry x="981" y="70" width="210" height="50" as="geometry" />
        </mxCell>
        <mxCell id="DzFFAU3qwcf-lBZUktXT-33" style="edgeStyle=orthogonalEdgeStyle;rounded=0;orthogonalLoop=1;jettySize=auto;html=1;exitX=0.5;exitY=1;exitDx=0;exitDy=0;entryX=0;entryY=0.5;entryDx=0;entryDy=0;" edge="1" parent="1" source="DzFFAU3qwcf-lBZUktXT-32" target="DzFFAU3qwcf-lBZUktXT-24">
          <mxGeometry relative="1" as="geometry" />
        </mxCell>
        <mxCell id="DzFFAU3qwcf-lBZUktXT-32" value="AddO()" style="html=1;align=center;verticalAlign=top;rounded=1;absoluteArcSize=1;arcSize=10;dashed=0;" vertex="1" parent="1">
          <mxGeometry x="910" y="230" width="140" height="40" as="geometry" />
        </mxCell>
        <mxCell id="DzFFAU3qwcf-lBZUktXT-34" value="AddX()" style="shape=umlFrame;whiteSpace=wrap;html=1;width=120;height=30;boundedLbl=1;verticalAlign=middle;align=left;spacingLeft=5;" vertex="1" parent="1">
          <mxGeometry x="490" width="410" height="310" as="geometry" />
        </mxCell>
        <mxCell id="DzFFAU3qwcf-lBZUktXT-35" style="edgeStyle=orthogonalEdgeStyle;rounded=0;orthogonalLoop=1;jettySize=auto;html=1;exitX=0.5;exitY=1;exitDx=0;exitDy=0;entryX=0.5;entryY=0;entryDx=0;entryDy=0;" edge="1" source="DzFFAU3qwcf-lBZUktXT-45" target="DzFFAU3qwcf-lBZUktXT-38" parent="1">
          <mxGeometry relative="1" as="geometry">
            <mxPoint x="655" y="100" as="sourcePoint" />
          </mxGeometry>
        </mxCell>
        <mxCell id="DzFFAU3qwcf-lBZUktXT-36" value="Yes" style="edgeStyle=orthogonalEdgeStyle;rounded=0;orthogonalLoop=1;jettySize=auto;html=1;entryX=0.5;entryY=0;entryDx=0;entryDy=0;" edge="1" source="DzFFAU3qwcf-lBZUktXT-38" target="DzFFAU3qwcf-lBZUktXT-44" parent="1">
          <mxGeometry x="-0.5247" relative="1" as="geometry">
            <mxPoint x="790" y="330" as="targetPoint" />
            <Array as="points">
              <mxPoint x="790" y="186" />
            </Array>
            <mxPoint as="offset" />
          </mxGeometry>
        </mxCell>
        <mxCell id="DzFFAU3qwcf-lBZUktXT-37" value="No" style="edgeStyle=orthogonalEdgeStyle;rounded=0;orthogonalLoop=1;jettySize=auto;html=1;entryX=0.5;entryY=0;entryDx=0;entryDy=0;" edge="1" source="DzFFAU3qwcf-lBZUktXT-38" target="DzFFAU3qwcf-lBZUktXT-47" parent="1">
          <mxGeometry x="-0.8095" relative="1" as="geometry">
            <mxPoint x="550" y="240" as="targetPoint" />
            <Array as="points">
              <mxPoint x="550" y="186" />
            </Array>
            <mxPoint as="offset" />
          </mxGeometry>
        </mxCell>
        <mxCell id="DzFFAU3qwcf-lBZUktXT-38" value="if (spot !&gt; &amp;&amp; spot !&lt; 1)&#xa;elIf (board[spot - 1] == void)" style="rhombus;" vertex="1" parent="1">
          <mxGeometry x="571" y="141" width="189" height="89" as="geometry" />
        </mxCell>
        <mxCell id="DzFFAU3qwcf-lBZUktXT-39" style="edgeStyle=orthogonalEdgeStyle;rounded=0;orthogonalLoop=1;jettySize=auto;html=1;exitX=0.5;exitY=1;exitDx=0;exitDy=0;" edge="1" source="DzFFAU3qwcf-lBZUktXT-38" target="DzFFAU3qwcf-lBZUktXT-38" parent="1">
          <mxGeometry relative="1" as="geometry" />
        </mxCell>
        <mxCell id="DzFFAU3qwcf-lBZUktXT-40" value="" style="ellipse;html=1;shape=endState;fillColor=#000000;strokeColor=#000000;" vertex="1" parent="1">
          <mxGeometry x="660" y="260" width="30" height="30" as="geometry" />
        </mxCell>
        <mxCell id="DzFFAU3qwcf-lBZUktXT-41" style="edgeStyle=orthogonalEdgeStyle;rounded=0;orthogonalLoop=1;jettySize=auto;html=1;exitX=0.5;exitY=1;exitDx=0;exitDy=0;entryX=0.5;entryY=0;entryDx=0;entryDy=0;" edge="1" source="DzFFAU3qwcf-lBZUktXT-42" target="DzFFAU3qwcf-lBZUktXT-45" parent="1">
          <mxGeometry relative="1" as="geometry" />
        </mxCell>
        <mxCell id="DzFFAU3qwcf-lBZUktXT-42" value="" style="ellipse;fillColor=#000000;strokeColor=none;" vertex="1" parent="1">
          <mxGeometry x="641" y="10" width="30" height="30" as="geometry" />
        </mxCell>
        <mxCell id="DzFFAU3qwcf-lBZUktXT-43" style="edgeStyle=orthogonalEdgeStyle;rounded=0;orthogonalLoop=1;jettySize=auto;html=1;exitX=0.5;exitY=1;exitDx=0;exitDy=0;entryX=1;entryY=0.5;entryDx=0;entryDy=0;" edge="1" source="DzFFAU3qwcf-lBZUktXT-44" target="DzFFAU3qwcf-lBZUktXT-40" parent="1">
          <mxGeometry relative="1" as="geometry" />
        </mxCell>
        <mxCell id="DzFFAU3qwcf-lBZUktXT-44" value="board[spot - 1] = &quot;X&quot;" style="html=1;align=center;verticalAlign=top;rounded=1;absoluteArcSize=1;arcSize=10;dashed=0;" vertex="1" parent="1">
          <mxGeometry x="720" y="211" width="140" height="40" as="geometry" />
        </mxCell>
        <mxCell id="DzFFAU3qwcf-lBZUktXT-45" value="number spot = 0;&lt;br&gt;spot = Input(&quot;Enter a number 1 - 9&quot;)" style="html=1;align=center;verticalAlign=top;rounded=1;absoluteArcSize=1;arcSize=10;dashed=0;" vertex="1" parent="1">
          <mxGeometry x="551" y="70" width="210" height="50" as="geometry" />
        </mxCell>
        <mxCell id="DzFFAU3qwcf-lBZUktXT-46" style="edgeStyle=orthogonalEdgeStyle;rounded=0;orthogonalLoop=1;jettySize=auto;html=1;exitX=0.5;exitY=1;exitDx=0;exitDy=0;entryX=0;entryY=0.5;entryDx=0;entryDy=0;" edge="1" source="DzFFAU3qwcf-lBZUktXT-47" target="DzFFAU3qwcf-lBZUktXT-40" parent="1">
          <mxGeometry relative="1" as="geometry" />
        </mxCell>
        <mxCell id="DzFFAU3qwcf-lBZUktXT-47" value="AddX()" style="html=1;align=center;verticalAlign=top;rounded=1;absoluteArcSize=1;arcSize=10;dashed=0;" vertex="1" parent="1">
          <mxGeometry x="480" y="230" width="140" height="40" as="geometry" />
        </mxCell>
        <mxCell id="DzFFAU3qwcf-lBZUktXT-50" style="edgeStyle=orthogonalEdgeStyle;rounded=0;orthogonalLoop=1;jettySize=auto;html=1;exitX=0.5;exitY=1;exitDx=0;exitDy=0;entryX=0.5;entryY=0;entryDx=0;entryDy=0;" edge="1" parent="1" source="DzFFAU3qwcf-lBZUktXT-48" target="DzFFAU3qwcf-lBZUktXT-49">
          <mxGeometry relative="1" as="geometry" />
        </mxCell>
        <mxCell id="DzFFAU3qwcf-lBZUktXT-48" value="AddO()&lt;br&gt;Won = CheckVic()" style="html=1;align=center;verticalAlign=top;rounded=1;absoluteArcSize=1;arcSize=10;dashed=0;" vertex="1" parent="1">
          <mxGeometry x="565" y="600" width="140" height="40" as="geometry" />
        </mxCell>
        <mxCell id="DzFFAU3qwcf-lBZUktXT-52" style="edgeStyle=orthogonalEdgeStyle;rounded=0;orthogonalLoop=1;jettySize=auto;html=1;exitX=0;exitY=0.5;exitDx=0;exitDy=0;entryX=0.5;entryY=0;entryDx=0;entryDy=0;" edge="1" parent="1" source="DzFFAU3qwcf-lBZUktXT-49" target="DzFFAU3qwcf-lBZUktXT-14">
          <mxGeometry relative="1" as="geometry" />
        </mxCell>
        <mxCell id="DzFFAU3qwcf-lBZUktXT-55" value="No" style="edgeLabel;html=1;align=center;verticalAlign=middle;resizable=0;points=[];" vertex="1" connectable="0" parent="DzFFAU3qwcf-lBZUktXT-52">
          <mxGeometry x="-0.8228" y="-2" relative="1" as="geometry">
            <mxPoint as="offset" />
          </mxGeometry>
        </mxCell>
        <mxCell id="DzFFAU3qwcf-lBZUktXT-57" style="edgeStyle=orthogonalEdgeStyle;rounded=0;orthogonalLoop=1;jettySize=auto;html=1;exitX=0.5;exitY=1;exitDx=0;exitDy=0;entryX=0.5;entryY=0;entryDx=0;entryDy=0;" edge="1" parent="1" source="DzFFAU3qwcf-lBZUktXT-49" target="DzFFAU3qwcf-lBZUktXT-56">
          <mxGeometry relative="1" as="geometry" />
        </mxCell>
        <mxCell id="DzFFAU3qwcf-lBZUktXT-49" value="If (Won != 0)" style="rhombus;" vertex="1" parent="1">
          <mxGeometry x="572.5" y="670" width="125" height="60" as="geometry" />
        </mxCell>
        <mxCell id="DzFFAU3qwcf-lBZUktXT-58" style="edgeStyle=orthogonalEdgeStyle;rounded=0;orthogonalLoop=1;jettySize=auto;html=1;exitX=0.5;exitY=1;exitDx=0;exitDy=0;entryX=0.5;entryY=0;entryDx=0;entryDy=0;" edge="1" parent="1" source="DzFFAU3qwcf-lBZUktXT-56" target="DzFFAU3qwcf-lBZUktXT-6">
          <mxGeometry relative="1" as="geometry">
            <Array as="points">
              <mxPoint x="635" y="820" />
              <mxPoint x="810" y="820" />
              <mxPoint x="810" y="450" />
              <mxPoint x="635" y="450" />
            </Array>
          </mxGeometry>
        </mxCell>
        <mxCell id="DzFFAU3qwcf-lBZUktXT-56" value="AddX()&lt;br&gt;Won = CheckVic()" style="html=1;align=center;verticalAlign=top;rounded=1;absoluteArcSize=1;arcSize=10;dashed=0;" vertex="1" parent="1">
          <mxGeometry x="565" y="760" width="140" height="40" as="geometry" />
        </mxCell>
        <mxCell id="DzFFAU3qwcf-lBZUktXT-60" value="" style="shape=image;html=1;verticalLabelPosition=bottom;verticalAlign=top;imageAspect=1;aspect=fixed;image=data:image/png,iVBORw0KGgoAAAANSUhEUgAAAg8AAALRCAYAAADcEUD9AAAAAXNSR0IArs4c6QAAAARnQU1BAACxjwv8YQUAAAAJcEhZcwAADsMAAA7DAcdvqGQAAHTdSURBVHhe7b09kuM6sG6rcWlAnMKehtxnt1ERPQBFtFN2l9/bUlyrndtGH2PHdY7FlwkCUiIB/lVJFEWuFcGQSPyQIhOZHwGQOvx//9//1wIAAABMBfEAAAAAs0A8AAAAwCwQDwAAADALxAMAAADMAvEAAAAAs0A8AAAAwCwQDwAAADALxAMAAADMAvEAAAAAs0A8AAAAwCwQDwAAADALxAMAAADMAvEAAAAAs0A8AAAAwCwQDwAAADALxAMAAADMYoZ4OLftP038PsKfk+Q9yHKU73HbBBopInu5GyfZ/ekSV2Yy+VjOTXs4HON+zlKuuetvmIbdr34/tM3yBwEAADvhAeJBoqhG7RmiIbGUeJB4Xw+usk1i8Aw0UCfhoKxBPCjPOg4AANgDDxAPU/OVLNbzIDuRmK8yJ0Pzz7ljv0iBQ1ZgLeKhO7bjZ7tdAAAABhgWD79EBIThh7QYUXAdmojLewxUb2bbSfLUkKxHST7E5RizqXhoZBd+e6CnTKAnLRMPMU81TdF0IygyIRPL5vVfpA4/PNAF8UYKHySjLlkAD0Mct7Rb2a6u/rSjnMpUNooEV9d1e+Jykt9zuv6esJ71kgAAAHyOAfEgoSibs6DrSTzY74pEJI3GIa9PK9HAbIOYCobwKduvQVPSNWCn1SyYCzb499V3zePqUiSWZgLEr9v91euv9TLoNhv4dT0G7CJ4mzRPyJvqjsIiUym+bN+xmG2IBwAAuBP94kF7Hd7ygHUVBUWPRFx+aaLJV0OSJaZV6RUIWkbS/BLi6UB9obwIAs1r6w1Ivb6nwQbW67H01j8hYAtnqSj0PmhPQSYAurTrpt6ehNjzYI6trGvasQAAANyDz4uHLM1i8tWQZIlpVQbFQ1+VA2laXtO0Xhe3AxKDewXIPcVDt48B8RCEgy1n60E8AADAuugXD2FOg4maobchrUtIuvY0RN4lUk/peZAgqEMI2V1+zN4rHgQvAHSYIawP1DdUPiDrEl81Fhdp12Pprb8bTsjL+YCt6zHw+2EDu+7FQCYmKuIhG9YQCvEhaB7mPAAAwAMYnjCpgiANSbxJxLSiwE+YzISFyVdDApgGZB1O0CXNNRgSD76MLte8PfVl5QWtX+LnLaAKYZssWeAVsmPpqb/+tIUdenDiIgTwepr2QlzLiToZ7HkQwr6r+TuKpy0QDwAAcCeGxQOMYHoWVgVDFgAA8DgQD18lDBmsSUB0vR/5cAoAAMD9QDwAAADALBAPAAAAMAvEw6c5t//30LT/r/g+k8up/X04tP/ncGz/Z3To4wv72Tz3PjeX9n+OU67JEnDdAWBdIB4C4pzDJAEJGM2p/d9u4wjWoX/WuY8EKBUWR3s8Kw0ixXE+g3ufG8QDAEAfiAfl3LT/N0wwPLf/M3nm4z3Ew0g5xMMM7n1uEA8AAH3sWzyIaPg/YcjAL8lRawDJ0zqRoViHPuLc3X5SHf+vMXUXwdftO/SMdPv5v6bcb/cuh24IpJJm+N/TMdZ3Q4/lmr/neAPFPkRwFccp9NYRg/IppTfyfeR4PNXf+YVzU01z4iHmSeWyazc05OTqvtmWMHSeMz7728pzHfY9dC4AACZAz4M62DhU8b+nU78AUILTrQmGAfEQytjgonnT+kA5RcsWPQ8myPQej+KCX4bPa9ZHj9eladD3xzlYhx6XBK1MLLh6s9/l6TmGsP0z56avPpPHH48GfXv8sl4P/JW6J51nj6Z95rf1neu+/AAA00A8qDNNwaI238HdHd7uHK0T9g7Z4AONoHetXSAYKKdokBgctjCOvzjObqkHtfzOXnsirnefQ8dbSQv44xz8zfVgZY/BHltB3zF89tz01hfLh7t2d41C8NY6Bq6dUtRtjnHwHHk+e90r53owPwDANHYsHtQhl040c6TB0VqnbZ1433fHYJAYKKfMFQ/VINjD9e5V6zQBZuh4+/ZxB/Fw+20j56T3d37y3PSmaXmxh6aRevuCq+7T2YylqNsc4+A58nzyt9XO9WB+AIBp7L7n4X/lzjI54cJxe0er61cnbh26d+6GEKSNA8/WB8op1wCfGAgiIS0PPno3Xw9GHSFYSXDMfuPQ8fo03aeW9cc5VEctoEX0eDQQD47B9x3DZ89Nb3395f15zXpuLNXzEtf9fovjsHzyt1XP9VB+AIBp7Fw8iHMdme+QAlpYwl1ocuLWoXvn7giB4VbPzVGPlBOu+x8NkLqa72dSt3p2PJHe4xVcmh1qCNuSEOmtoxbQIqHMyDEr1WP4wrmp1uePU+uXdO1h8XVlvUM5Gphv+URkDOy3P4B/9rf1nOuhcwEAMAHmPMBq6L2D3woq1gaEBgDAq4B4gHUQ7oZ7eiReFr3z5w4fALYH4gEAAABmgXgAAACAWexYPJzb9p8mfhf+nGT9IMtRvsdtnnPTHg7HthuWP7fNodFaFibf77k5yDHpko5rCC0b8x9P7bIjBLLv73rc+inH+l/c+lOO5bsut23DaPlY5kf6DfW6H4OzmwzZPzYxg/p1wybuQb5fbCJt83XLd/mdaZ43TIeeh4CY1mlANATUyGzD0/V1OIXC8C+n9pgaf81ZqAh6mlO4tKcf5vjFKTS/44ryW44t5LNo2UN7/NccseYrnEJe92OQ2l8gUNSdoZyfY8UeFGziC0jtL2gTN0Gxdz/xrGv02iAeAmI2vY2/4yLi4pC1vmcZXL7f0ilogDDbag7gKU5Bjuun7nPEKQiXf+VcXxt8lydzCErmFOp1Pwap/QUDRbDfviChYBNfQGp/OZuQdHu9d+4ntH0cqw0D+mDYQnnT4Yq4nE7dtgwxNhuQA13jbIx6z4xPG95V1duyXV39aeLcT6lsNHBX13V7SHLHpb0OWYOPddp28RSnUKfmFJSrI8gav6Fvey+S82Susy6/YlKyBWsH76bmX5Jmy40EitXZxJWKLSSwiW7ZnU0knJhQ9mQT3m+G3tuetgIBxEPxvUbnAPK2p9tsg9T1aGyF4Zk0T8ib6o4OI2vlvmx+LI8QD1pn7oTiYnY0Jc8U+pyCpIQuyLJrMjI7UDjCHBd7/SUApMBRpNkhLV0fChQrtIkrFVtIYBM7tYmOsmdV2JVN5OervDbgQTwU32s4wwqU27ShhLsKbXSucWSNV9OzxpTq6Qn0WV0jTkGN/oviYUnGnYIce22C1GcCRe/dopzA7PpLrWkOjJZ5y8//cKBYoU1c+bx4WBJs4rqygE0Ifdd+VzZRXicYBvFQfK9RM6y6UwgNdMgpBIdgy9l61iEetM7cacXF7GhKninUnYIc8487dUcmQpCw11iOs/f6S613DBTX6+7OzWI2caVSVwKbEOQ4d2YToceh77rvyibK6wTDIB6K7zW0sfrG541N12OD9l1edt038sxJVJxCKGv245xK6RTcsdYcwIhTWJKaUwgToX7efpTmCQ7C8plAYR1+Fjhke1+gyLqrhSLgWNZqE4lKXQlsYnc2EQJ73VA69mQTev7sb/XXBgoQD8X3OvWnLXI1nSUH46unZWq8aYxzqTv320x5n7+rq2j/2b4rDWDFTiE4hNmPYE3ETn57sw5f9pZdf6k1BQrlXb5Xy3nWaxNZfl389ccm9mUTbr9pyfLsyCb03GUTWcP5QTwMsWPxMBd1Auszpqp4GGPldxST+Eyg2AnYBHiwiSHUt3shAmMgHuagjWllAuJ2dzLluMxd0IqcwtffHAcWbAI82EQf3W+dLawA8QAAAADzQDwAAADALBAPELm054O+9f1O3GWIR7sUx8Yi6XYEAFgaxAPM4/LRfjt+tH/jah0N6F8VDnOYIjIAAOBeIB5gHhPEQ3hkbOGugOJRKwAAeBiIh83SDUOcm1N7OnTLt1MK+X/bj+O39uN0jmk6XGGHLfrKarnbtlNTC9b6DHo+jNA9f257BrqhBg32NaGhM8M7IeB6FNyz6cVz2SuZGQ4AsHUQD5tFBcCpPd8ir6yLYAjRNYqALPh78WDKam9DShvteagPIQSREIK7Fxc+v1333+1QiKxnosPXAwAAjwLxsFmsGOi4NLYHIQmJhBcPtqzJ/0nxoKRnzf3wwq2nQarPhh9MXToBc3AoBPEAALAUiIfNUhcPXW/Cc8RDN3xRioduOELLaFnXu4B4AABYHYiHzeIFgK7bYYsviIcszVPOeQhcX3VbT9feh6bxAsEIguJd85Jm8zLnAQBgMRAPm0UFgJncmM1/+IJ4ELQHo3/CpMbxfBJk1+NgewVUFLgeiPBeCC8qXG/CwITJfLgDAAAeCeJhs3gBsCQa9HnPAwDAVkE8bJZnigfhLm+YnELXi+GHQQAA4HEgHgAAAGAWiAcAAACYBeIBAAAAZoF4gI4/p7Y9ybIo+tjmkhMrAQDgHiAeoGNh8ZBeGLXMpEoAALgniIfNIhFZAnT73rTtPwdZ5FNRkRDW4/KukVvzmm1v+uiCLKlMwK7X6o7pb6aeUPcQ9DwAALwiiIfNEgVBEAIJLwiiCPgjX4uehzHxUKtbtv2Kq0Gk2PI1EA8AAK8I4mGzGGGQ+CXBPPUK2EUD/mzx4Oou8tfyeBAPAACvCOJhs/SIh6y3wIB4AACAiSAeNktfgI89DYl3yZN6HgqxYMqHXgvEAwAAIB42TE/wDiLBDluYgJ8mO6beCRUWKd/bfcXD7WmLuPCPmAAALwPiAQAAAGaBeAAAAIBZIB4AAABgFogHAAAAmMWOxYOb4HedSDjwhMC5Ma9TPrfNodFaFibf77lJkw6nPLWgZZ81QVH2/V2PWz/lWP+LW3/KsXzX5bZtGC0fy/xIv6Fe92PwE0Mtsn9sYgb164ZN3IN8v9hE2ubrlu/yO5vlL9DLQ89DQExr9LFCNTLb8HR9HU7BG/7NUXRL0TBUBD3NKVza0w9z/OIUmt9xRfktxxbyWbTsoT3+a45Y8xVOIa/7MUjtLxAo+p2h5sUm7ovU/oI24f1EISx2YxPPukavDeIhIGbT2/g7wqOFWet7lsHl+y2dgjSMxjT4y6k9+uN8ilOQ4/qp+xxxCsLlXznX1wbf5ckcgpI5hXrdj0Fqf1nxIOfneGyPx0o6NvEFpPYXFQ91O4nsyCbUvx/Hu2TAwLCFYv/MqfrPkmJshcPtGmdj1HtmfNrwjKq/le3q6k8T9X9KZaOBu7qu20PSJxzAU5xCnZpTUK6OIGv8hr7tvUhO++dfulxfliUnUG2h70+9itd6DweKtdpE2l5Nxya6ZUc28Snf8SQebhN6k2V/a7jpcj0xkIF4KL7XqN096Dbb+HQ9GltheCbNk/UMRIeRtWhfNj+WXgeQHEmt8Y84Ba0zd0JxMTuakmcKfU5BUkIXZNk1GZkdKBzZGzVlDxoAUuAo0uyQlq4PBYp12oS9s6raDDaxO5vw16u4TLuyifx8ldcGPIiH4nsNZ1iBcps2lOCgtdG5xpE13hTYr0uqJ95RWIMt6hp3ChmZ04mMOIUlGXcKcj5qE6Q+Eyh67xbl7GTXX2pNc2CK/wPxeS0rtQmXv2oz2ERcdmITnt37ifI6wTCIh+J7jZph1Z1CaKBDTiE4BFvO1vMAp9BX56rvKOSYf9ypOzIRgoS9xnKcvddfar1joLhed3dulrKJ4lXgcSm6z7GJ3dhEyd79RHmdYBjEQ/G9hjYs3/i8sel6bHy+y8uu+0aeOYlKA/Z3BM6pFE5B89sNL3hHESZC/bwdseYJDsLymUBhHX4WOGR7X6DIuquFIuBYVmoTjmo6NrEzm5DjsBt8eWVPNqG/3/5Wf22gAPFQfK9Tf9oiV9NZcjC+elqmxpvGOJeKUxCyO8csf1dX7hQ6oXPNX2sAK3YKwSHMfgRrInbyW/ZHX7K37PpLrSlQKL1/EOZZq03kVNOxiZ3ZBH7Coucu64lDPIyyY/EwF3UC6zOmsUBRZeV3FJP4TKDYCdgEeLCJIdS3eyECYyAe5qCNaWUC4nZ3MuW4zF3QipzC198cBxZsAjzYRB/db50trADxAAAAAPNAPAAAAMAsEA8QubTng771/U7cZYhHuxTHxiLpdgQAWBrEA8zj8tF+O360f+NqHQ3oXxUOc5giMgAA4F4gHmAeE8RD+Vjr4yketQIAgIeBeNgs3TDEuTm1p0O3fDulkP+3/Th+az9O55imwxV22KKvrJa7bTs1tWDdPT9utUP3/LntGeiGGjTY14SGzgzvhIDrUXDPxBfPZa9kZjgAwNZBPGwWFQCn9nyLvLIugiFE1ygCsuDvxYMpq70NKW2056E+hBBEQgjuXlz4/Hbdf7dDIbKeiQ5fDwAAPArEw2axYqDj0tgehCQkEl482LIm/yfFg5KeNffDC7eeBqk+G34wdekEzMGhEMQDAMBSIB42S108dL0JzxEP3fBFKR664Qgto2Vd7wLiAQBgdSAeNosXALpuhy2+IB6yNE855yFwfdVtPV17H5rGCwQjCIp3zUuazcucBwCAxUA8bBYVAGZyYzb/4QviQdAejP4JkxrH80mQXY+D7RVQUeB6IMJ7IbyocL0JAxMm8+EOAAB4JIiHzeIFwJJo0Oc9DwAAWwXxsFmeKR6Eu7xhcgpdL4YfBgEAgMeBeAAAAIBZIB4AAABgFogHAAAAmAXiATr+nNr2JMui6GObS06sBACAe4B4gI6FxUN6YdQykyoBAOCeIB42i0RkCdDte9O2/xxkkU9FRUJYj8u7Rm7Na7a96aMLsqQyAbteqzumv5l6Qt1D0PMAAPCKIB42SxQEQQgkvCCIIuCPfC16HsbEQ61u2fYrrgaRYsvXQDwAALwiiIfNYoRB4pcE89QrYBcN+LPFg6u7yF/L40E8AAC8IoiHzdIjHrLeAgPiAQAAJoJ42Cx9AT72NCTeJU/qeSjEgikfei0QDwAAgHjYMD3BO4gEO2xhAn6a7Jh6J1RYpHxv9xUPt6ct4sI/YgIAvAyIBwAAAJgF4gEAAABmgXgAAACAWSAeAAAAYBY7Fg9ugt91IuHAEwLnxrxO+dw2h0ZrWZh8v+cmTTqc8tSCln3WBEXZ93c9bv2UY/0vbv0px/Jdl9u2YbR8LPMj/YZ63Y/BTwy1yP6xiRnUrxs2cQ/y/WITaZuvW77L72yWv0AvDz0PATGt0ccK1chsw9P1dTiFmuFnTzP4DCqCnuYULu3phzl+cQrN77ii/JZjC/ksWvbQHv81R6z5CqeQ1/0YpPYXCBTZJb+c2mOyBbNkebCJLyC1v5pNKM4uivTd2MSzrtFrg3gIiNn0Nv6OEIxzb7tapxCOdajRP8UpSIP9qfsccQrC5V85/muD7/JkDkHJnEK97scgtb9ioMioHCc28QWk9pezCU03N0NBSOzXJtRnHse7ZMDAsIVi/8yp+s+SYmzHWuNr2kYaZVLumfFpw6uq+q6u/jRp0KdUNhq4q+u6PSTVjyvb5HmKU6hTcwrK1RFkjd/Qt70XyWn//EuX68uy5GypLfT9qVfxWu/hQLE+m8ipOkpsolt2YxPeT1T8xp5sQsWT/a1BTNmeZvAgHorvNWoBWbfZBqnr0dgKwzNpnkzxR4eRtXJfNj+WwimE+qwDcc5KGXEKWqctf13MjqbkmUKfU5CU0AVZdk1GZgcKR/ZGTdmDBoAUOIo0O6Sl60OBYoU2kZHnvYJN7M8mMl9R2e+ubCI/X+W1AQ/iofhewxlWoNymDSUEam10rnFkjVfTs8aU6ol3FNZgi7pGnIIafdbgNX+lzgGnsCTjTkGOvTZB6jOBovduUU5gdv2lVrk7D8Gh+D8Qn9eyUpswXI/Hg03EZS82oXWY4yr8hrArmyivEwyDeCi+16gZVt0phAY65BSCQ7DlbD2PEA+VPCNOQfPnTisuppIpeaZQdwpyHn6Ig71nF3UIEvYay3H2Xn+p9Y6BIpySZ9pEItxN5cd3BZsQ5Dj3YhND+07syibK6wTDIB6K7zW0sbqGVRibrscG7bu87LpvtJmTqDgF7/Cz/Lrqj8sfqzmuxIhTWJKaUwgToX7efpTmCQ7C8plAYR1+Fjhke1+gyLqrhSLgWNZqEx26vdrroGAT+7IJv297XIk92YSeD/tbi/MDHsRD8b1O/WmLXE2XjbOelqnxpjHOpeIUhLDvav6urmy/gfzYivQVO4XgEGY/gjURO/kt+6Mv2Vt2/aXWFCiU3j8I86zYJsauOTaxT5tI+WWZbTML8mibKCYRIx5G2bF4mIs6gfUZU108jLBipzCZzwSKnYBNgAebGEJ9uxciMAbiYQ5Bqa9LQNzuTqYcl7kLWpFT+Pqb48CCTYAHm+ij+62zhRUgHgAAAGAeiAcAAACYBeIBIpf2fNC3vt+JuwzxaJfi2Fgk3Y4AAEuDeIB5XD7ab8eP9m9craMB/avCYQ5TRAYAANwLxAPMY4J4KB9rfTzFo1YAAPAwEA+bpRuGODen9nTolm+nFPL/th/Hb+3H6RzTdLjCDlv0ldVyt22nphas9Rn0fBihe/7c9gx0Qw0a7GtCQ2eGd0LA9Si4Z+KL57JXMjMcAGDrIB42iwqAU3u+RV5ZF8EQomsUAVnw9+LBlNXehpQ22vNQH0IIIiEEdy8ufH677r/boRBZz0SHrwcAAB4F4mGzWDHQcWlsD0ISEgkvHmxZk/+T4kFJz5r74YVbT4NUnw0/mLp0AubgUAjiAQBgKRAPm6UuHrrehOeIh274ohQP3XCEltGyrncB8QAAsDoQD5vFCwBdt8MWXxAPWZqnnPMQuL7qtp6uvQ9N4wWCEQTFu+YlzeZlzgMAwGIgHjaLCgAzuTGb//AF8SBoD0b/hEmN4/kkyK7HwfYKqChwPRDhvRBeVLjehIEJk/lwBwAAPBLEw2bxAmBJNOjzngcAgK2CeNgszxQPwl3eMDmFrhfDD4MAAMDjQDwAAADALBAPAAAAMAvEAwAAAMwC8QAdf05te5JlUfSxzSUnVgIAwD1APEDHwuIhvTBqmUmVAABwTxAPm0UisgTo9r1p238OssinoiIhrMflXSO35jXb3vTRBVlSmYBdr9Ud099MPaHuIeh5AAB4RRAPmyUKgiAEEl4QRBHwR74WPQ9j4qFWt2z7FVeDSLHlayAeAABeEcTDZjHCIPFLgnnqFbCLBvzZ4sHVXeSv5fEgHgAAXhHEw2bpEQ9Zb4EB8QAAABNBPGyWvgAfexoS75In9TwUYsGUD70WiAcAAEA8bJie4B1Egh22MAE/TXZMvRMqLFK+t/uKh9vTFnHhHzEBAF4GxAMAAADMAvEAAAAAs0A8AAAAwCwQDwAAADCLHYsHN8HvOpFw4AmBc2Nep3xum0OjtSxMvt9zkyYdTnlqQcs+a4Ki7Pu7Hrd+yrH+F7f+lGP5rstt2zBaPpb5kX5Dve7H4CeGWmT/2MQM6tcNm7gH+X6xibTN1y3f5Xc2y1+gl4eeh4CY1uhjhWpktuHp+jqcQmH4l1N7TI2/5ixUBD3NKVza0w9z/OIUmt9xRfktxxbyWbTsoT3+a45Y8xVOIa/7MUjtLxAovE3cgke3FDaDTXwBqf0FbULJnnoqjWYnNvGsa/TaIB4CYja9jb8jNLKscT3L4PL9lk5BGsbRbKs5gKc4BTmun7rPEacgXP6Vc31t8F2ezCEomVOo1/0YpPaXCxRyXhpzvYO4dMeJTXwBqf0FxUPwaUPXfEc2oefiON4lAwaGLRT7Z07Vf5YUY7MBOdA1zsbc0WXGpw0vKXpZbmW7uvrTjnIIqWw0cFfXdXtIcselgSFr8LFO2y6e4hTq1JyCcnUEWeM39G3vRXLaP//S5fqyLDmBagt9f+pVvNZ7OFCsziY8teuPTXTLbmxigqjZk014vxkEdqXXFq4gHorvNWoNTbfZBqnr0dgKwzNpnuwuMDqMrJX7svmxPEI8aJ25E4qL2dGUPFPocwqSErogy67JyOxA4cjeqCl70ACQAkeRZoe0dH0oUKzQJhIpuNSuPTaxL5sI9ZlrJEtx570rm8jPV3ltwIN4KL7XcIYVKLdpQwkNUBudaxxZ401O/LqkenoCfVbXBKfwRfGwJONOQY69NkHqM4Gi925RTmB2/aXWNAem+D8Qn9eyUpvwZIEogk3EZSc2UfgJzb9nP1FeJxgG8VB8r1EzrHLbtYEOOYXgEGw5W886xIPWmTutuJgdTckzhbpTkGP+cafuyEQIEvYay3H2Xn+p9Y6B4nrd3blZzCYKsInAnm2i8BOVPLuyifI6wTCIh+J7DW2srmEVxqbrsUGHOzvTuO26b+SZk6g4hVDW7Mc5laLB+2OtOYARp7AkNacQJkL9vP0ozRMchOUzgcI6/CxwyPa+QJF1VwtFwLGs1CY0v93gyyvYxL5sItRht5njSuzJJvT82d/qrw0UIB6K73XqT1vkajpLDsZXT8vUeNMY51JxCkL+OJXN39WVOwUh23elAazYKQSHMPsRrInYyW/ZH33J3rLrL7WmQKH0/kGYZ6020QWKa35s4sZubULJj61I35FNFE9bIB5G2bF4mIs2tPUZU90pjLDyO4pJfCZQ7ARsAjzYxBDq270QgTEQD3PQxrQyAXG7O5lyXOZOY0VO4etvjgMLNgEebKKP7rfOFlaAeAAAAIB5IB4AAABgFogHiFza80Hf+n4n7jLEo12KY2ORdDsCACwN4gHmcflovx0/2r9xtY4G9K8KhzlMERkAAHAvEA8wjwnioXys9fEUj1oBAMDDQDxslm4Y4tyc2tOhW76dUsj/234cv7Ufp3NM0+EKO2zRV1bL3badmlqw9i+fiWIi6xnohho02NeEhs4M74SA61Fwz8QXz2WvZGY4AMDWQTxsFhUAp/Z8i7yyLoIhRNcoArLg78WDKau9DSlttOehPoQQREII7l5c+Px23X+3QyGynokOXw8AADwKxMNmsWKg49LYHoQkJBJePNiyJv8nxYOSnjX3wwu3ngapPht+MHXpBMzBoRDEAwDAUiAeNktdPHS9Cc8RD93wRSkeuuEILaNlXe8C4gEAYHUgHjaLFwC6boctviAesjRPOechcH3VbT1dex+axgsEIwiKd81Lms3LnAcAgMVAPGwWFQBmcmM2/+EL4kHQHoz+CZMax/NJkF2Pg+0VUFHgeiDCeyG8qHC9CQMTJvPhDgAAeCSIh83iBcCSaNDnPQ8AAFsF8bBZnikehLu8YXIKXS+GHwYBAIDHgXgAAACAWSAeAAAAYBaIBwAAAJgF4gE6/pza9iTLouhjm0tOrAQAgHuAeICOhcVDemHUMpMqAQDgniAeNotEZAnQ7XvTtv8cZJFPRUVCWI/Lu0ZuzWu2vemjC7KkMgG7Xqs7pr+ZekLdQ9DzAADwiiAeNksUBEEIJLwgiCLgj3wteh7GxEOtbtn2K64GkWLL10A8AAC8IoiHzWKEQeKXBPPUK2AXDfizxYOru8hfy+NBPAAAvCKIh83SIx6y3gID4gEAACaCeNgsfQE+9jQk3iVP6nkoxIIpH3otEA8AAIB42DA9wTuIBDtsYQJ+muyYeidUWKR8b/cVD7enLeLCP2ICALwMiAcAAACYBeIBAAAAZoF4AAAAgFkgHgAAAGAWOxYPboLfdSLhwBMC58a8TvncNodGa1mYfL/nJk06nPLUgpZ91gRF2fd3PW79lGP9L279KcfyXZfbtmG0fCzzI/2Get2PwU8Mtcj+sYkZ1K8bNnEP8v1iE2mbr1u+y+9slr9ALw89DwExrdHHCtXIbMPT9XU4hbrhDzwGqSLoaU5BjuuHOX5xCs3vuKL8lmML+Sxa9tAe/zVHrPkKp5DX/Rik9hcIFP3OUPNW0rGJLyC1v5pNXE7tMQkEs2R5dmMTz7pGrw3iISBm09v4O8KjhXnLWqdTEEb/dOopTkEa7E/d54hTEC7/yvFfG3yXJ3MISuYU6nU/Bqn9ZcWDnB8RlMdjJR2b+AJS+0sLSqVynDuyCfWZx/EuGTAwbKHYP3Oq/rOkGFvhcLvG1kijTKo9Mz5teHG7LreyXV39aRLwT6lsNHBX13V7SOpzCrGuWnt4ilOoU3MKytURZI3f0Le9F8lp//xLl+vLsuQEqi30/alX8Vrv4UCxVptI26vp2ES37MwmEtXguSeb0J4Y+1tDz0yP/4QA4qH4XqOiysM22yB1PRpbYXgmzRPyprqjw8hauS+bH8sjxIPWmTuhuJgdTckzhT6nICmhC7LsmozMDhSO7I2asgcNAClwFGl2SEvXhwLFOm3CBoeqzWATu7OJG3neK7uyCXcOimsDHsRD8b1GrXGV27ShBAetjc41jqzxanrWmFI9lYBf1JXvt98pfF48LMm4U5DfUJsg9ZlA0Xu3KCcwu/5SqwTbEByK/wPxeS0rtQmXv2oz2ERcdmIThuvxeHZlE+V1gmEQD8X3GjXDqjuF0ECHnEJwCLacrWcd4kHrzJ1WXMyOpuSZQt0pyLH/uFN3ZCIECXuN5Th7r7/UesdAcb3u7twsZRO3OTD5kgUMbEKQ49yJTVzJejQcu7KJ8jrBMIiH4nsNbay+8Xlj0/XYoH2Xl133jTxzEhWn4Bu3cyq9TqFWV2LEKSxJzSmEiVA/bz9K8wQHYflMoLAOPwscsr0vUGTd1UIRcCxrt4mOajo2sUub0O3VXgdlTzah58/+Vn9toADxUHyvE+7estanTiBX01lyML56mjbYa7mmMc6lHvCzO8csf1eXdwrFnaZ3ACt2CsEhzH4EayJ28lv2R1+yt+z6S60pUCi9fxDmWa9NWKrp2MT+bGLsmu/IJvTcZSIK8TDKjsXDXNQJrM+YxgJFlZXfUUziM4FiJ2AT4MEmhlDf7oUIjIF4mIM2ppUJiNvdyZTjMndBK3IKX39zHFiwCfBgE310v3W2sALEAwAAAMwD8QAAAACzQDxA5NKeD/rW9ztxlyEe7VIcG4uk2xEAYGkQDzCPy0f77fjR/o2rdTSgf1U4zGGKyAAAgHuBeIB5TBAP4ZGxhbsCiketAADgYSAeNks3DHFuTu3p0C3fTink/20/jt/aj9M5pulwhR226Cur5W7bTk0tWOsz6PkwQvf8ue0Z6IYaNNjXhIbODO+EgOtRcM/EF89lr2RmOADA1kE8bBYVAKf2fIu8si6CIUTXKAKy4O/FgymrvQ0pbbTnoT6EEERCCO5eXPj8dt1/t0Mhsp6JDl8PAAA8CsTDZrFioOPS2B6EJCQSXjzYsib/J8WDkp4198MLt54GqT4bfjB16QTMwaEQxAMAwFIgHjZLXTx0vQnPEQ/d8EUpHrrhCC2jZV3vAuIBAGB1IB42ixcAum6HLb4gHrI0TznnIXB91W09XXsfmsYLBCMIinfNS5rNy5wHAIDFQDxsFhUAZnJjNv/hC+JB0B6M/gmTGsfzSZBdj4PtFVBR4HogwnshvKhwvQkDEybz4Q4AAHgkiIfN4gXAkmjQ5z0PAABbBfGwWZ4pHoS7vGFyCl0vhh8GAQCAx4F4AAAAgFkgHgAAAGAWiAcAAACYBeIBOv6c2vYky6LoY5tLTqwEAIB7gHiAjoXFQ3ph1DKTKgEA4J4gHjaLRGQJ0O1707b/HGSRT0VFQliPy7tGbs1rtr3powuypDIBu16rO6a/mXpC3UPQ8wAA8IogHjZLFARBCCS8IIgi4I98LXoexsRDrW7Z9iuuBpFiy9dAPAAAvCKIh81ihEHilwTz1CtgFw34s8WDq7vIX8vjQTwAALwiiIfN0iMest4CA+IBAAAmgnjYLH0BPvY0JN4lT+p5KMSCKR96LRAPAACAeNgwPcE7iAQ7bGECfprsmHonVFikfG/3FQ+3py3iwj9iAgC8DIgHAAAAmAXiAQAAAGaBeAAAAIBZIB4AAABgFjsWD26C33Ui4cATAufGvE753DaHRmtZmHy/5yZNOpzy1IKWfdYERdn3dz1u/ZRj/S9u/SnH8l2X27ZhtHws8yP9hnrdj8FPDLXI/rGJGdSvGzZxD/L9YhNpm69bvsvvbJa/QC8PPQ8BMa3RxwrVyGzD0/V1OAVv+DdHoUvFWagIeppTuLSnH+b4xSk0v+OK8luOLeSzaNlDe/zXHLHmK5xCXvdjkNpfIFAM20TFLrCJLyC1v6BNtJdTezQ2UaTvxiaedY1eG8RDQMymt/F3hEcLs9b1LIPL91s6BUm3Db7mAJ7iFKTB/tR9jjgF4fKvnOtrg+/yZA5ByZxCve7HILW/qHgogoMFm/gCUvvL2YSmGwEZhIQ7zh3ZhPr343iXDBgYtlDsnzlV/1lSjO1Ya3xN20ijTMo9Mz5teFVV39XVnyYN+pTKRgN3dV23hyR/XB45zlWIhzo1p6BcHUHW+A1923uRnPbPv3S5vixLTqDaQt+fehWv9R4OFGu0iXWKhzrYhPJom+iO67bJrwt7sgkVT/a3BjHleucgA/FQfK9RaVhhm22Quh6NrTA8k+bJFH90GFkr92XzYxkLCmWPiTDiFLTO3AnFxdQzJc8U+pyCpIQuyLJrMjI7UDiyN2rKHjQApMBRpNkhLV0fChTrtAl/vYrLhE3szia6OtN1qux3VzaRn6/y2oAH8VB8r+EMK1Bu04YS7iq00bnGkTVeTc8aU6on3lFYgy3qmuAUEn2Nf8QpLMm4U5DzUZsg9ZlA0Xu3KCcwu/5Sa5oDU/wfiM9reQGbULJAFMEm4rIXm9A6zHGpTfjrvyubKK8TDIN4KL7XqBlW3SmEBjrkFIJDsOVsPfcLFKHHoa/hjzgFrTN3WnExO5qSZwp1pyDn4ceduiMTIUjYayzH2Xv9pdY7BorrdXfnZmmbuNFTJzaxH5sY2ndiVzZRXicYBvFQfK+hjdU1rMLYdD02aN/lZdd9o82cRMUp+LvELL+u+uPqtg02zhGnsCQ1pxAmQv28Hb/mCQ7C8plAYR1+Fjhke1+gyLqrhSLgWNZqE3IcdoMvr2AT+7IJv297XIk92YSeD/tbi/MDHsRD8b1O/WmLXE2XjbOelqnxpjHOpeIUhLDvav6urqH9piU/9PU6heAQZj+CNRE7+S37oy/ZW3b9pdYUKJTePwjzrNQmQh2m/ppTxCZ2ZhNCEBi3fVTTd2ITeu6yiayIh1F2LB7mok5gfcZUdQpjrPyOYhKfCRQ7AZsADzYxhPp2L0RgDMTDHIJSX5eAuN2dTDkucxe0Iqfw9TfHgQWbAA820Uf3W2cLK0A8AAAAwDwQDwAAADALxANELu35oG99vxN3GeLRLsWxsUi6HQEAlgbxAPO4fLTfjh/t37haRwP6V4XDHKaIDAAAuBeIB5jHBPFQPtb6eIpHrQAA4GEgHjZLNwxxbk7t6dAt304p5P9tP47f2o/TOabpcIUdtugrq+Vu205NLVh37xSw2qF7/tz2DHRDDRrsa0JDZ4Z3QsD1KLhn4ovnslcyMxwAYOsgHjaLCoBTe75FXlkXwRCiaxQBWfD34sGU1d6GlDba81AfQggiIQR3Ly58frvuv9uhEFnPRIevBwAAHgXiYbNYMdBxaWwPQhISCS8ebFmT/5PiQUnPmvvhhVtPg1SfDT+YunQC5uBQCOIBAGApEA+bpS4eut6E54iHbviiFA/dcISW0bKudwHxAACwOhAPm8ULAF23wxZfEA9Zmqec8xC4vuq2nq69D03jBYIRBMW75iXN5mXOAwDAYiAeNosKADO5MZv/8AXxIGgPRv+ESY3j+STIrsfB9gqoKHA9EOG9EF5UuN6EgQmT+XAHAAA8EsTDZvECYEk06POeBwCArYJ42CzPFA/CXd4wOYWuF8MPgwAAwONAPAAAAMAsEA8AAAAwC8QDAAAAzALxAB1/Tm17kmVR9LHNJSdWAgDAPUA8QMfC4iG9MGqZSZUAAHBPEA+bRSKyBOj2vWnbfw6yyKeiIiGsx+VdI7fmNdve9NEFWVKZgF2v1R3T30w9oe4h6HkAAHhFEA+bJQqCIAQSXhBEEfBHvhY9D2PioVa3bPsVV4NIseVrIB4AAF4RxMNmMcIg8UuCeeoVsIsG/NniwdVd5K/l8SAeAABeEcTDZukRD1lvgQHxAAAAE0E8bJa+AB97GhLvkif1PBRiwZQPvRaIBwAAQDxsmJ7gHUSCHbYwAT9Ndky9EyosUr63+4qH29MWceEfMQEAXgbEAwAAAMwC8QAAAACzQDwAAADALBAPAAAAMIsdiwc3we86kXDgCYFzY16nfG6bQ6O1LEy+33OTJh1OeWpByz5rgqLs+7set37Ksf4Xt/6UY/muy23bMFo+lvmRfkO97sfgJ4ZaZP/YxAzq1w2buAf5frGJtM3XLd/ldzbLX6CXh56HgJjW6GOFamS24en6OpxCYfiXU3tMjb/mLFQEPc0pXNrTD3P84hSa33FF+S3HFvJZtOyhPf5rjljzFU4hr/sxSO0vECj6naHmraRjE19Aan9Fm8j8xJ5t4lnX6LVBPATEbHobf0d4tDBrXc8yuHy/pVOQhnE022oO4ClOQY7rp+5zxCkIl3/lXF8bfJcncwhK5hTqdT8Gqf1lxYPaxrE9WvtIYBNfQGp/OZvQdHNjEYSEO84d2YT69+N4lwwYGLZQ7J85Vf9ZUoytcLhd42ykUSblnhmfNryqqu/q6k+TBn1KZaOBu7qu20OSOy51AlmDj3XadvEUp1Cn5hSUqyPIGr+hb3svktP++Zcu15dlyQlUW+j7U6/itd7DgWJ1NhFJ26vp2ES37MYmcnFRrgt7sgnvN4OYcn4TMhAPxfcalYYVttkGqevR2ArDM2meTPFHh5G1cl82P5ZHiAetM3dCcTE7mpJnCn1OQVJCF2TZNRmZHSgc2Rs1ZQ8aAFLgKNLskJauDwWKFdqEYO+saunYhLAzm+jqTNepst9d2UR+vsprAx7EQ/G9hjOsQLlNG0pw0NroXOPIGq+mZ40p1dMT6LO6RpyCGv0XxcOSjDsFOfbaBKnPBIreu0U5gdn1l1rTHJji/0B8XstKbcLlL9IVbCIuO7GJUIc5rsJvCLuyifI6wTCIh+J7jZph1Z1CaKBDTiE4BFvO1rMO8aB15k4rLmZHU/JMoe4U5Jh/3Kk7MhGChL3Gcpy9119qvWOguF53d26WsoniVeBxKbrPsYnd2MTgvhO7sonyOsEwiIfiew1trK5hFcam67FB+y4vu+4bbeYkKk4hlDX7yfLrqj8ud6w1BzDiFJak5hTCRKiftx+leYKDsHwmUFiHnwUO2d4XKLLuaqEIOJa12kRONR2b2JdN+H3b40rsySb0fNjfWpwf8CAeiu916k9b5Gq6bJz1tEyNN41xLhWnIGR3jln+rq5sv0q270oDWLFTCA5h9iNYE7GT37I/+pK9Zddfak2BQun9gzDPim3CUE3HJvZnE0Fg3PaxZ5vQc5f1xCEeRtmxeJiLOoH1GdNYoKiy8juKSXwmUOwEbAI82MQQ6tu9EIExEA9zCEp9XQLidncy5bjMXdCKnMLX3xwHFmwCPNhEH91vnS2sAPEAAAAA80A8AAAAwCwQDxC5tOeDvvX9TtxliEe7FMfGIul2BABYGsQDzOPy0X47frR/42odDehfFQ5zmCIyAADgXiAeYB4TxEP5WOvjKR61AgCAh4F42CzdMMS5ObWnQ7d8O6WQ/7f9OH5rP07nmKbDFXbYoq+slrttOzW1YK3PoOfDCN3z57ZnoBtq0GBfExo6M7wTAq5HwT0TXzyXvZKZ4QAAWwfxsFlUAJza8y3yyroIhhBdowjIgr8XD6as9jaktNGeh/oQQhAJIbh7ceHz23X/3Q6FyHomOnw9AADwKBAPm8WKgY5LY3sQkpBIePFgy5r8nxQPSnrW3A8v3HoapPps+MHUpRMwB4dCEA8AAEuBeNgsdfHQ9SY8Rzx0wxeleOiGI7SMlnW9C4gHAIDVgXjYLF4A6LodtviCeMjSPOWch8D1Vbf1dO19aBovEIwgKN41L2k2L3MeAAAWA/GwWVQAmMmN2fyHL4gHQXsw+idMahzPJ0F2PQ62V0BFgeuBCO+F8KLC9SYMTJjMhzsAAOCRIB42ixcAS6JBn/c8AABsFcTDZnmmeBDu8obJKXS9GH4YBAAAHgfiAQAAAGaBeAAAAIBZIB4AAABgFogH6PhzatuTLIuij20uObESAADuAeIBOhYWD+mFUctMqgQAgHuCeNgsEpElQLfvTdv+c5BFPhUVCWE9Lu8auTWv2famjy7IksoE7Hqt7pj+ZuoJdQ9BzwMAwCuCeNgsURAEIZDwgiCKgD/yteh5GBMPtbpl26+4GkSKLV8D8QAA8IogHjaLEQaJXxLMU6+AXTTgzxYPru4ify2PB/EAAPCKIB42S494yHoLDIgHAACYCOJhs/QF+NjTkHiXPKnnoRALpnzotUA8AAAA4mHD9ATvIBLssIUJ+GmyY+qdUGGR8r3dVzzcnraIC/+ICQDwMiAeAAAAYBaIBwAAAJgF4gEAAABmgXgAAACAWexYPLgJfteJhANPCJwb8zrlc9scGq1lYfL9nps06XDKUwta9lkTFGXf3/W49VOO9b+49accy3ddbtuG0fKxzI/0G+p1PwY/MdQi+8cmZlC/btjEPcj3i02kbb5u+S6/s1n+Ar089DwExLRGHytUI7MNT9fX4RS84d8chS4VZ6Ei6GlO4dKefpjjF6fQ/I4rym85tpDPomUP7fFfc8Sar3AKed2PQWp/gUDR7ww1byUdm/gCUvuL2kT21FPpSHZiE8+6Rq8N4iEgZtPb+DtCI8sa17MMLt9v6RQk3Tb4mgN4ilOQBvtT9zniFITLv3Kurw2+y5M5BCVzCvW6H4PU/rLiQc7P8dgej5V0bOILSO0vaBPBpw1d8x3ZhJ6L43iXDBgYtlDsnzlV/1lSjK1wuF3jbKRRJuWeGZ82vKToZbmV7erqTzvKIaSy0cBdXdftIal0CjlynKsQD3VqTkG5OoKs8Rv6tvciOe2ff+lyfVmWnEC1hb4/9Spe6z0cKNZqE2l7NR2b6Jbd2EQuLqrsySYuJxHVJp+uTxri2S+Ih+J7jVpD0222Qep6NLbC8EyaJ+RNdUeHkbVyXzY/ljHxUPaYCCNOQevMnVBcTD1T8kyhzylISuiCLLsmI7MDhSN7o6bsQQNAChxFmh3S0vWhQLFOm7B3VlWbwSb2ZROhPnONZCnuvHdlE/n5Kq8NeBAPxfcazrAC5TZtKKEBaqNzjSNrvJqeNaZUT7yjsAZb1DXiFCx9jX/EKSzJuFOQ81GbIPWZQNF7tygnMLv+UqsE2xAciv8D8XktK7UJl79qM9hEXHZiExocs+ut+St17sYmyusEwyAeiu81aoZVbrs20CGnEByCLWfruZ94GBzPHHEKWmfutOJidjQlzxTqTkHOw487dUcmQpCw11iOs/f6S613DBTX6+7OzVI2EWyhcq2yO01sQpDj3IlNlOKhkmdXNlFeJxgG8VB8r6GN1TWswth0PTZo3+Vl130jz5xExSmEsmY/zqkUDV4IDXaocY44hSWpOYUwEern7fg1T3AQls8ECuvws8Ah2/sCRdZdLRQBx7Jem7BU07GJndmE92nmuBJ7sgk9f/a3+msDBYiH4nudcu6ANrZcTWfJwfjqaSG4p7SmMc6l4hSE7M4xy9/VNbTftOSHvl6nEBzC7EewJmInv2V/9CV7y66/1JoChdL7B2GeldqEo5qOTezQJvJj27NN6LnLeuIQD6PsWDzMRRva+oxpLFBUWfkdxSQ+Eyh2AjYBHmxiCPXtXojAGIiHOWhjWpmAuN2dTDkuc6exIqfw9TfHgQWbAA820Uf3W2cLK0A8AAAAwDwQDwAAADALxANELu35oG99vxN3GeLRLsWxsUi6HQEAlgbxAPO4fLTfjh/t37haRwP6V4XDHKaIDAAAuBeIB5jHBPFQPtb6eIpHrQAA4GEgHjZLNwxxbk7t6dAt304p5P9tP47f2o/TOabpcIUdtugrq+Vu205NLVj7l89EMZH1DHRDDRrsa0JDZ4Z3QsD1KLhn4ovnslcyMxwAYOsgHjaLCoBTe75FXlkXwRCiaxQBWfD34sGU1d6GlDba81AfQggiIQT32pvtvLBI6/67HQqR9Ux0+HoAAOBRIB42ixUDHZfG9iAkIZHw4sGWNfk/KR6U9Ky5H1649TRI9dnwg6lLJ2AODoUgHgAAlgLxsFnq4qHrTXiOeOiGL0rx0A1HaBkt63oXEA8AAKsD8bBZvADQdTts8QXxkKV5yjkPgeurbuvp2vvQNF4gGEFQvGte0mxe5jwAACwG4mGzqAAwkxuz+Q9fEA+C9mD0T5jUOJ5Pgux6HGyvgIoC1wMR3gvhRYXrTRiYMJkPdwAAwCNBPGwWLwCWRIM+73kAANgqiIfN8kzxINzlDZNT6Hox/DAIAAA8DsQDAAAAzALxAAAAALNAPAAAAMAsEA/Q8efUtidZFkUf21xyYiUAANwDxAN0LCwe0gujlplUCQAA9wTxsFkkIkuAbt+btv3nIIt8KioSwnpc3jVya16z7U0fXZAllQnY9VrdMf3N1BPqHoKeBwCAVwTxsFmiIAhCIOEFQRQBf+Rr0fMwJh5qdcu2X3E1iBRbvgbiAQDgFUE8bBYjDBK/JJinXgG7aMCfLR5c3UX+Wh4P4gEA4BVBPGyWHvGQ9RYYEA8AADARxMNm6Qvwsach8S55Us9DIRZM+dBrgXgAAADEw4bpCd5BJNhhCxPw02TH1DuhwiLle7uveLg9bREX/hETAOBlQDwAAADALBAPAAAAMAvEAwAAAMwC8QAAAACzQDwAAADALBAPAAAAMAvEAwAAAMwC8QAAAACzQDwAAADALBAPAAAAMAvEAwAAAMwC8QAAAACzQDwAAADALBAPAAAAMAvEAwAAAMwC8QAAAACzQDwAAADALBAPAAAAMAvEAwAAAMwC8QAAAACzQDwAAADALBAPAAAAMAvEAwAAAMwC8QAAAACzQDwAAADALBAPAAAAMAvEAwAAAMwC8QAAAACzQDwAAADALBAPAAAAMIsdi4dz2/7TxO/Cn5OsH2Q5yve4zXNu2sPh2J4uYaVtDo3WsjD5fs/NQY5Jl3RcQ2jZmP94akez3xXZ93c9bv2UY/0vbv0px/Jdl9u2cbSOWO5H+h31+h+Ds50M2T92MYP6dcMu7kW+X+xiyC7ku/zWZvmL9JLQ8xAQczoNiIaAGpZtcLq+DmdQGPvl1B5To685CRVBT3MGl/b0wxy/OIPmd1wxXP49RicRl5+VM/1bfkfhDPL6H4PU/gJBou4E5fwcKzahYBdfRGp/Qbu4CQpd9u4vnnWdXg/EQ0BMpbfRd1xEXByyVrdWZ6DBwWyrNfynOAM5rp+6z3FnEO4uro28I2zzDiFzBvX6H4PU/oJBIthwX4BQsIsvIrW/nF1Iur3m+IvQTo7VBgIWhi2UNx2uiMvp1G3LEAOzATnQNcrGqPbM4LTBXdW8LdvV1Z8mjv2UykajdnVdt4ckd1za65A19Fhn1rKe4QzqFM7gPzn+cEfgkfPtuyozZzAFyXky11qXXzFJ96j2YG3h3dT8S9JsuZEgsTq7uFKxhwR2cVt2ZxcJOc5ViIc6i9iF96GhJ7enzewYxEPxvUbX8HMD1W22Iep6NLDC2EyaJ+RNdUdHkbVuXzY/lkeIB60zdz5xMTuakmcKhTPQBl7rchSqeWcFCUeY52JtQJx/ChpFmh3W0vWhILFCu7hSsYcEdtGxS7voKHtYhd3ZRX7OyusDCuKh+F7DGVOg3KYNJNxNaGNzjSJrtJqeNSLrDJyRFnWNOAM19C+KhyVZPEj03inKPjMbkFrTPBgt85Zfg+EgsUK7uPJ58bAk2MXSdiH0Xf/d2UV5raAE8VB8r1EzprozCA1zyBkER2DL2XrWIR60ztxZxcXsaEqeKRQN/JHd0yFA2Osse+m1Aan1jkHieu3d+VnMLq58XjxgF8o27SL0OPRd+93ZRXmtoATxUHyvoY3UNzpvYLoeG7Lv5rLrvnFnzqHiDEJZsx/nTEpn4I611vBHnMGSFM5A0G2+kYdt/g7jM0HCOvssaMj2viCRdVULRbCxrNUuEpW6EthFx87sIgT2urF07M0u9Bza3+uvDwQQD8X3OvWnLcRAzZIlB4Orp2UqvGmMU6k79tsseZ+/q6to99m+K0a/cmegzH/0aiJ24tubdfZSf2YDUmsKEsq7fK+W86zXLrL8ungbwC4q11fq37JduP2mJcuzM7vQ85dNZg3nCPHg2bF4mIu5U1gRVfEwxgs4g0l8JkjsBOwCu6iBXYz9DvXzN7EF/SAe5qCNaGUC4nZXMuW4zN3PipxBd7cgx2/HJweR35HuMAgSVbAL7KIGdjH0O7rfO1tc7RTEAwAAAMwC8QAAAACzQDxA5NKeD/qm9ztxlyEe7UYcG3+kqxEAYGkQDzCPy0f77fjR/o2rdTSgf1U4zGGKyAAAgHuBeIB5TBAP4VGxhbsCiserAADgYSAeNks3DHFuTu3p0C3fTink/20/jt/aj9M5pulwhR226Cur5W7bTk0tWOuz55VhhDCMcbguKb0mNHRGeCcEXI+Ceya9eBZ7JTPCAQC2DuJhs6gAOLXnW+SVdREMIbpGEZAFfy8eTFntbUhpoz0PlSGE4iUrdljD57fr/rurIxMdvh4AAHgUiIfNYsVAx6WxPQhJSCS8eLBlTf7PiAftdaj0LqRNt54GqT4bfjB1VerIQTwAACwF4mGz1MVD15uwLvHQ9UxoGS3reygQDwAAawPxsFm8ANB1O2zxBfGQpXkqcx78sEUxjBHFROMFghEEtaEPm1fTmfMAALAIiIfNogLATG7M5j98QTwI2oPRP2FS43jlaYsQ/MsJk1fihMp8u+tNcHXYCZM8bQEAsByIh83iBcCSaNDPexYeC0MWAABLgnjYLM8UD0LoSVhCQKhwqPRkAADAw0A8AAAAwCwQDwAAADALxAMAAADMAvEAHX9ObXuSZVH0sc4lJ1YCAMA9QDxAx8LiITzOGR65RDwAALwaiIfNIhFZAnT73rTtPwdZ5FNRkRDW4/KukVvzmm1v+uiCLKlMwK7X6o7pb6aeUPcQ9DwAALwiiIfNEgVBEAIJLwiiCPgjX4uehzHxUKtbtv2Kq0Gk2PI1EA8AAK8I4mGzGGGQ+CXBPPUK2EUD/mzx4Oou8tfyeBAPAACvCOJhs/SIh6y3wIB4AACAiSAeNktfgI89DYl3yZN6HgqxYMqHXgvEAwAAIB42TE/wDiLBDluYgJ8mO6beCRUWKd/bfcXD7WmLuPCPmAAALwPiAQAAAGaBeAAAAIBZIB4AAABgFogHAAAAmMWOxYOb4HedSDjwhMC5Ma9TPrfNodFaFibf77lJkw6nPLWgZZ81QVH2/V2PWz/lWP+LW3/KsXzX5bZtHK0jlvuRfke9/sfgJ4daZP/YxQzq1w27uBf5frGLIbuQ7/Jbm+Uv0ktCz0NAzGn0sUI1LNvgdH0dzsAb+81BdEvRGFQEPc0ZXNrTD3P84gya33HFcPn3GJ1EXH5WzvRv+R2FM8jrfwxS+wsEiX4nqHmxi/sjtb+gXXh/UQiLXdnFs67T64F4CIip9Db6jvBoYdbq1uoMpDE0pqFfTu3RH+dTnIEc10/d57gzCHcX10beEbZ5h5A5g3r9j0Fqf1nxIOfneGyPx0o6dvFFpPYXFQ91W4nszC7U1x/Hu2V2D8MWiv0zp+o/S4qBFc62a5SNUe2ZwWmDM2r+Vrarqz9NVP8plY1G7eq6bg9Jn2j4T3EGdQpn8J+InXBH4JHz7bsqM2cwBclp/wBMl+sLs2SPag99f+xVvNp7OEis1S7S9mo6dnFbdmQXn/IhT2IRu9AbLvt7ww2Y1LWGE7AiEA/F9xpdw88NVLfZRqfr0cAKYzNpnqxnIDqKrCX7svmx9Db85EBqjX7EGWidufOJi9nRlDxTKJyBNvBal6NQzTsrSDiyt2rKPtX5p6BRpNlhLV0fChLrtAt7R1W1G+yiY2d24a9Zcal2Zxf5OSuvDyiIh+J7DWdMgXKbNpDgnLWxuUaRNdoU2K+LdQbOSIu6xp1BRuZsIiPOYEkWDxK9d4qyz8wGpNY0D6b4TxCf17JSu3D5q3aDXZhlJ3bhwV8I5bWCEsRD8b1GzZjqziA0zCFnEByBLWfreYAz6KtzrXcSj+yeDgHCXmfZS68NSK13DBLXa+/Oz1J2UbwOPC5F1zl2IchedmIXJfiLUNZdKyhBPBTfa2iD8o3OG5iux0bnu7nsum/cmXOoNFx/J+CcSeEMNL/d8Gp3EoJu8408bPN3GJ8JEtbZZ0FDtvcFiayrWiiCjWWlduGopmMXHbuyCzkOu8GXV/ZmF3oO7O/11wcCiIfie5360xZioGbJkoPB1dMyFd40xqlUnIGQ3TVm+bu6cmfQCZ1r/prRr9wZKPMfvZqInfiW/dmX1J/ZgNSagoTS+ydhnrXaRU41HbuoXF+pf9N2gb/w6PnLeuQQD1V2LB7mYu4UVsRYkKjyAs5gEp8JEjsBu8AuamAXY79D/fxNbEE/iIc5aCNamYC43ZVMOS5z97MiZ9DdLcjx2/HJQeR3pDsMgkQV7AK7qIFdDP2O7vfOFlc7BfEAAAAAs0A8AAAAwCwQDxC5tOeDvun9TtxliEe7EcfGH+lqBABYGsQDzOPy0X47frR/42odDehfFQ5zmCIyAADgXiAeYB4TxEP5WOvjKR6vAgCAh4F42CzdMMS5ObWnQ7d8O6WQ/7f9OH5rP07nmKbDFXbYoq+slrttOzW1YN09N15ohzCMcbguKb0mNHRGeCcEXI+Cexa+eBZ7JTPCAQC2DuJhs6gAOLXnW+SVdREMIbpGEZAFfy8eTFntbUhpoz0PlSGE4iUrdljD57fr/rurIxMdvh4AAHgUiIfNYsVAx6WxPQhJSCS8eLBlTf7PiAftdaj0LqRNt54GqT4bfjB1VerIQTwAACwF4mGz1MVD15uwLvHQ9UxoGS3reygQDwAAawPxsFm8ANB1O2zxBfGQpXkqcx78sEUxjBHFROMFghEEtaEPm1fTmfMAALAIiIfNogLATG7M5j98QTwI2oPRP2FS43jlaYsQ/MsJk1fihMp8u+tNcHXYCZM8bQEAsByIh83iBcCSaNDPexYeC0MWAABLgnjYLM8UD0LoSVhCQKhwqPRkAADAw0A8AAAAwCwQDwAAADALxAMAAADMAvEAHX9ObXuSZVH0sc4lJ1YCAMA9QDxAx8LiITzOGR65RDwAALwaiIfNIhFZAnT73rTtPwdZ5FNRkRDW4/KukVvzmm1v+uiCLKlMwK7X6o7pb6aeUPcQ9DwAALwiiIfNEgVBEAIJLwiiCPgjX4uehzHxUKtbtv2Kq0Gk2PI1EA8AAK8I4mGzGGGQ+CXBPPUK2EUD/mzx4Oou8tfyeBAPAACvCOJhs/SIh6y3wIB4AACAiSAeNktfgI89DYl3yZN6HgqxYMqHXgvEAwAAIB42TE/wDiLBDluYgJ8mO6beCRUWKd/bfcXD7WmLuPCPmAAALwPiAQAAAGaBeAAAAIBZIB4AAABgFogHAAAAmMWOxYOb4HedSDjwhMC5Ma9TPrfNodFaFibf77lJkw6nPLWgZZ81QVH2/V2PWz/lWP+LW3/KsXzX5bZtHK0jlvuRfke9/sfgJ4daZP/YxQzq1w27uBf5frGLIbuQ7/Jbm+Uv0ktCz0NAzGn0sUI1LNvgdH0dzqBm7NnTDD6DiqCnOYNLe/phjl+cQfM7rhgu/8rxpwavy8/Kj/wtv6NwBnn9j0Fqf4EgkV32y6k9JnswS5YHu/giUvur2YXibKNI35VdPOs6vR6Ih4CYSm+j7wjBOPe0q3UG4ViHGvtTnIE00p+6z3FnEO4uro28I2zzDiFzBvX6H4PU/opBIqNynNjFF5HaX84uNN3cFAUhsW+7UP95HO+W2T0MWyj2z5yq/ywpBnasNbqmbaQxJsWeGZw2uKqa7+rqT5OGfEplo1G7uq7bQ1L9uLJNnqc4gzqFM/hPnFe4I/DI7/JdlZkzmILktH8Apsv1hVmyR7WHvj/2Kl7tPRwk1mcXOVUHiV3clt3YhfcXfl3Ym12ogLK/NwgqqWsNJ2BFIB6K7zUqDSpssw1R16OBFcZm0jyZ0o+OImvdvmx+LIUzCPVZx+GclDLiDLROW/66mB1NyTOFwhloA691OQrVvLOChCN7q6bsU51/ChpFmh3W0vWhILFCu8jI817BLjr2ZheZz6jsd3d2kZ+z8vqAgngovtdwxhQot2kDCYFaG5trFFmj1fSsEVln4Iy0qGvEGaihZw1d81fqHHAGS7J4kOi9U5R9ZjYgtcrdeQgMxX+C+LyWldqF4Xo8HuzCLHuxC63DHFfhP4Td2UV5raAE8VB8r1EzprozCA1zyBkER2DL2XoeIR4qeUacgebPnVVcTCVT8kyhaOCP7J4OAcJeZ9lLrw1IrXcMEuG0PNMuEuEuqnZ+BewiInvZi10M7TuxO7sorxWUIB6K7zW0kboGVRiYrseG7Lu57LpvrJlzqDgD7+yz/Lrqj8sfqzmuxIgzWJLCGQi6zTfysM3fYXwmSFhnnwUN2d4XJLKuaqEINpa12kWHbq/2OijYRcee7MLv2x5XYm92oefE/t7iHIGCeCi+16k/bSEGapayUdbTMhXeNMapVJyBEPZdzd/Vle03kB9bkb5yZ6DMf/RqInbiW/ZnX1J/ZgNSawoSSu+fhHlWbBdj1x27qFxfqX8PdpHyyzLbbhZkCbsoJhMjHqrsWDzMpaLIV0BdPIzwAs5gEp8JEjsBu8AuamAXY79D/fxNbEE/iIc5BIW+LgFxuyuZclzm7mdFzqC7W5Djt+OTg8jvSHcYBIkq2AV2UQO7GPod3e+dLa52CuIBAAAAZoF4AAAAgFkgHiByac8HfdP7nbjLEI92I46NP9LVCACwNIgHmMflo/12/Gj/xtU6GtC/KhzmMEVkAADAvUA8wDwmiIfysdbHUzxeBQAADwPxsFm6YYhzc2pPh275dkoh/2/7cfzWfpzOMU2HK+ywRV9ZLXfbdmpqwVqfPa8MI4RhjMN1Sek1oaEzwjsh4HoU3LPwxbPYK5kRDgCwdRAPm0UFwKk93yKvrItgCNE1ioAs+HvxYMpqb0NKG+15qAwhFC9ZscMaPr9d999dHZno8PUAAMCjQDxsFisGOi6N7UFIQiLhxYMta/J/Rjxor0OldyFtuvU0SPXZ8IOpq1JHDuIBAGApEA+bpS4eut6EdYmHrmdCy2hZ30OBeAAAWBuIh83iBYCu22GLL4iHLM1TmfPghy2KYYwoJhovEIwgqA192LyazpwHAIBFQDxsFhUAZnJjNv/hC+JB0B6M/gmTGscrT1uE4F9OmLwSJ1Tm211vgqvDTpjkaQsAgOVAPGwWLwCWRIN+3rPwWBiyAABYEsTDZnmmeBBCT8ISAkKFQ6UnAwAAHgbiAQAAAGaBeAAAAIBZIB4AAABgFogH6PhzatuTLIuij3UuObESAADuAeIBOhYWD+FxzvDIJeIBAODVQDxsFonIEqDb96Zt/znIIp+KioSwHpd3jdya12x700cXZEllAna9VndMfzP1hLqHoOcBAOAVQTxsligIghBIeEEQRcAf+Vr0PIyJh1rdsu1XXA0ixZavgXgAAHhFEA+bxQiDxC8J5qlXwC4a8GeLB1d3kb+Wx4N4AAB4RRAPm6VHPGS9BQbEAwAATATxsFn6AnzsaUi8S57U81CIBVM+9FogHgAAAPGwYXqCdxAJdtjCBPw02TH1TqiwSPne7isebk9bxIV/xAQAeBkQDwAAADALxAMAAADMAvEAAAAAs0A8AAAAwCx2LB7cBL/rRMKBJwTOjXmd8rltDo3WsjD5fs9NmnQ45akFLfusCYqy7+963Popx/pf3PpTjuW7Lrdt42gdsdyP9Dvq9T8GPznUIvvHLmZQv27Yxb3I94tdDNmFfJff2ix/kV4Seh4CYk6jjxWqYdkGp+vrcAaFsV9O7TE1+pqTUBH0NGdwaU8/zPGLM2h+xxXD5d9jdBJx+Vk507/ldxTOIK//MUjtLxAkvF3cAke3FHaDXXwRqf0F7ULJnn4qDWdHdvGs6/R6IB4CYiq9jb4jNK6sUa3VGUhjOJpttYb/FGcgx/VT9znuDMLdxbWRd4Rt3iFkzqBe/2OQ2l8uSMh5acw5DQLTHSd28UWk9hcUD8G3DV33ndmFno/jeLfM7mHYQrF/5lT9Z0kxMBuQA12jbMzdXGZw2uCSkpflVrarqz/tKIeQykajdnVdt4ckd1waFLKGHuvMWtYznEGdwhn8J8cf7gg8cr59V2XmDKYgOe0fgOlyfWGW7FHtoe+PvYpXew8HidXZhadmA9jFbdmNXXTHlW3y7M0uvA8NQlvqWsMJWBGIh+J7jVoD0222Iep6NLDC2EyaJ7sDjI4ia92+bH4sjxAPWmfufOJidjQlzxQKZ6ANvNblKFTzzgoSjuytmrJPdf4paBRpdlhL14eCxArtIpECS+36Yxcde7KLUF9+rYq77t3ZRX7OyusDCuKh+F7DGVOg3KYNJDQ8bWyuUWSNNjnw62KdgTPSoq4JzuCL4mFJFg8SvXeKss/MBqTWNA+m+E8Qn9eyUrvwZEEogl2YZSd2UfgLzb93f1FeKyhBPBTfa9SMqe4MQsMccgbBEdhytp51iAetM3dWcTE7mpJnCkUDf2T3dAgQ9jrLXnptQGq9Y5C4Xnt3fhaziwLs4sqe7aLwF5U8u7OL8lpBCeKh+F5DG6lrUIWB6XpsyOGuzjRqu+4bd+YcKs4glDX7cc6kaOj+WGsNf8QZLEnhDATd5ht52ObvMD4TJKyzz4KGbO8LEllXtVAEG8tK7ULz2w2+vIJddOzJLkIddps5rsTe7ELPof29/vpAAPFQfK9Tf9pCDNQsWXIwuHpapsKbxjiVijMQ8seobP6urtwZCNm+K0a/cmegzH/0aiJ24lv2Z19Sf2YDUmsKEkrvn4R51moXXZC45scucnZrF0p+bEX6zuyieNoC8VBlx+JhLhVFvgLqzmCEF3AGk/hMkNgJ2AV2UQO7GPsd6udvYgv6QTzMQRvRygTE7a5kynGZO4wVOYPubkGO345PDiK/I91hECSqYBfYRQ3sYuh3dL93trjaKYgHAAAAmAXiAQAAAGaBeIDIpT0f9E3vd+IuQzzajTg2/khXIwDA0iAeYB6Xj/bb8aP9G1fraED/qnCYwxSRAQAA9wLxAPOYIB7Kx1ofT/F4FQAAPAzEw2bphiHOzak9Hbrl2ymF/L/tx/Fb+3E6xzQdrrDDFn1ltdxt26mpBWv/0plIGMY4XJeUXhMaOiO8EwKuR8E9C188i72SGeEAAFsH8bBZVACc2vMt8sq6CIYQXaMIyIK/Fw+mrPY2pLTRnofKEELxkhU7rOHz23X/3dWRiQ5fDwAAPArEw2axYqDj0tgehCQkEl482LIm/2fEg/Y6VHoX0qZbT4NUnw0/mLoqdeQgHgAAlgLxsFnq4qHrTViXeOh6JrSMlvU9FIgHAIC1gXjYLF4A6LodtviCeMjSPJU5D37YohjGiGKi8QLBCILa0IfNq+nMeQAAWATEw2ZRAWAmN2bzH74gHgTtweifMKlxvPK0RQj+5YTJK3FCZb7d9Sa4OuyESZ62AABYDsTDZvECYEk06Oc9C4+FIQsAgCVBPGyWZ4oHIfQkLCEgVDhUejIAAOBhIB4AAABgFogHAAAAmAXiAQAAAGaBeICOP6e2PcmyKPpY55ITKwEA4B4gHqBjYfEQHucMj1wiHgAAXg3Ew2aRiCwBun1v2vafgyzyqahICOtxedfIrXnNtjd9dEGWVCZg12t1x/Q3U0+oewh6HgAAXhHEw2aJgiAIgYQXBFEE/JGvRc/DmHio1S3bfsXVIFJs+RqIBwCAVwTxsFmMMEj8kmCeegXsogF/tnhwdRf5a3k8iAcAgFcE8bBZesRD1ltgQDwAAMBEEA+bpS/Ax56GxLvkST0PhVgw5UOvBeIBAAAQDxumJ3gHkWCHLUzAT5MdU++ECouU7+2+4uH2tEVc+EdMAICXAfEAAAAAs0A8AAAAwCwQDwAAADALxAMAAADMYsfiwU3wu04kHHhC4NyY1ymf2+bQaC0Lk+/33KRJh1OeWtCyz5qgKPv+rsetn3Ks/8WtP+VYvuty2zaO1hHL/Ui/o17/Y/CTQy2yf+xiBvXrNt8utHwsg01E8v3iK4bsQr7Lb22Wv0gvCz0PATGp0ccK1bhso9P1dTiEusEPPAapIuhpDkGO64c5fnEIze+4Yrj8e4yOIi4/Kz/yt/yOwiHk9T8Gqf0FAkW/I9S8lfQ124Ve65DPomUP7fFfc8TYhCHfb2ETl1N7TALBLFmeXfmKZ12n1wTxEBBz6W34HeHRwrxVrdMhCKN/OvUUhyAN9afuc9whhDuMa0PvCNu8U8gcQr3+xyC1v6x4kPMjovJ4rKSv3C5CkDB2oXky4aBgE4apNpGoHOfOfIX6zuN4twwIDFso9s+cqv8sKUZWONuuoTXSIJNiz4xOG13crsutbFdXf5oE/FMqGw3b1XXdHpL6HEKsq9YOnuIQ6hQO4T+5GyruMBU53767MnMIU5Cc9g/AdLm+MEv2qPbQ98dexau9hwPFWu0iba+mr9kuIro9CIa+a49NZPmn+YqOauBcs008wldob4z9vaF3pseP7hzEQ/G9Rtf4cyPVbbYx6no0ssLgTJon5E11R2eRtXBfNj+WR4gHrTN3QHExO5qSZwqFQ9BGXut2FKp5ZwUKR/ZWTdmnBoAUOIo0O6yl60OBYp12YYND1W7WbBdX5HeG7mnfHiPYxCybuJHnvbI7X+HOQ3F9IIF4KL7XqDWscps2kuCctcG5hpE1XE3PGlKqpxLwi7qmOoTPi4clWVw89N4tyj4zG5BaJdiG4FD8J4jPa1mpXbj8VbtZs11ckd8ZxIOcj9qkOWwirihTfUWXVvQ6KGu2iSXEA/SCeCi+16gZVN0hhMY55BCCM7DlbD3rEA9aZ+6w4mJ2NCXPFIpG/shhixAk7HWWvfTagNR6x0Bxvfbu/CxlF7d5MPmSBYw120VAzsMPOeZ7Dlvs2CauZD0ajjXbxEN8RXmtoA7iofheQxuqb3jeyHQ9Nmbf1WXXfQPPHETFIfiG7RxKr0Oo1ZUYcQhLUgsSus039LBtcBLUBLzDzwKHbO8LFFl3tVAEHMva7aKjmr5yuwgTJo0NaJ7hCZMTwCbC9mqvg7Jym7i7r9BzaH+vvz5wBfFQfK8T7tyylqcOQIzULFlyMLp6mjbWa7mmMY6lHvCzu8Ysf1eXdwjFXaZv/Ct3CMr8x68mYie/ZX/2JfVnNiC1pkCh9P5JmGe9dmGppq/YLjp7uP2+DjnXYhuZgMAmevJ3dc2+5jvzFXr+MiGFeOhlx+JhLuZuYUWMBYkqL+AQJvGZQLETdmsX2EQv+Iqx36E+3gtU6APxMAdtSCsTELc7kynHZe6AVuQQujsGOf7aBLgq3R1nKEegqLI/u8AmxsBXDP2O7vfOFlc7BvEAAAAAs0A8AAAAwCwQDxC5tOeDvu39TtxliEe7EsfGIOluBABYGsQDzOPy0X47frR/42odDehfFQ5zmCIyAADgXiAeYB4TxEN4XGzhroDiESsAAHgYiIfN0g1DnJtTezp0y7dTCvl/24/jt/bjdI5pOlxhhy36ymq527ZTUwvW+vx5ZRghDGMcrktKrwkNnRXeCQHXo+Cehy+ex17JrHAAgK2DeNgsKgBO7fkWeWVdBEOIrlEEZMHfiwdTVnsbUtpoz0NlCKF40Yod1vD57br/7urIRIevBwAAHgXiYbNYMdBxaWwPQhISCS8ebFmT/zPiQXsdKr0LadOtp0Gqz4YfTF2VOnIQDwAAS4F42Cx18dD1JqxLPHQ9E1pGy/oeCsQDAMDaQDxsFi8AdN0OW3xBPGRpnsqcBz9sUQxjRDHReIFgBEFt6MPm1XTmPAAALALiYbOoADCTG7P5D18QD4L2YPRPmNQ4XnnaIgT/csLklTihMt/uehNcHXbCJE9bAAAsB+Jhs3gBsCQa9POehcfCkAUAwJIgHjbLM8WDEHoSlhAQKhwqPRkAAPAwEA8AAAAwC8QDAAAAzALxAAAAALNAPEDHn1PbnmRZFH2sc8mJlQAAcA8QD9CxsHgIj3OGRy4RDwAArwbiYbNIRJYA3b43bfvPQRb5VFQkhPW4vGvk1rxm25s+uiBLKhOw67W6Y/qbqSfUPQQ9DwAArwjiYbNEQRCEQMILgigC/sjXoudhTDzU6pZtv+JqECm2fA3EAwDAK4J42CxGGCR+STBPvQJ20YA/Wzy4uov8tTwexAMAwCuCeNgsPeIh6y0wIB4AAGAiiIfN0hfgY09D4l3ypJ6HQiyY8qHXAvEAAACIhw3TE7yDSLDDFibgp8mOqXdChUXK93Zf8XB72iIu/CMmAMDLgHgAAACAWSAeAAAAYBaIBwAAAJgF4gEAAABmsWPx4Cb4XScSDjwhcG7M65TPbXNotJaFyfd7btKkwylPLWjZZ01QlH1/1+PWTznW/+LWn3Is33W5bRtH64jlfqTfUa//MfjJoRbZP3Yxg/p1wy7uRb5f7GLILuS7/NZm+Yv0ktDzEBBzGn2sUA3LNjhdX4cz8MZ+cxC6VJyEiqCnOYNLe/phjl+cQfM7rhgu/x6jk4jLz8qZ/i2/o3AGef2PQWp/gSAxbBe6ONvALr6I1P6CdtFeTu3R2EWRviu7eNZ1ej0QDwExld5G3xEeLcxa1VqdgaTbhl5r+E9xBtJIf+o+x51BuLu4NvKOsM07hMwZ1Ot/DFL7i4qHIjBYsIsvIrW/nF1ouhGRQUi449yZXaivP453y+wehi0U+2dO1X+WFAM71hpd0zbSGJNizwxOG1xVzXd19adJQz6lstGoXV3X7SHJH5dHjnMV4qFO4Qz+E+cV7gg88jt8V2XmDKYgOe0fgOlyfWGW7FHtoe+PvYpXew8HiTXaxTrFQx3sIm5/uF10x3Xb5NeFvdmFCij7e4OgkrrWcAJWBOKh+F6j0qDCNtsQdT0aWGFsJs2TKf3oKLLW7cvmxzIWEMoeE2HEGWidufOJi6lnSp4pFM5AG3ity1Go5p0VJBzZWzVln+r8U9Ao0uywlq4PBYl12oW/ZsWlwi46dmYXXZ3pWlX2uzu7yM9ZeX1AQTwU32s4YwqU27SBhLsJbWyuUWSNVtOzRmSdgTPSoq4JziDR1+hHnMGSLB4keu8UZZ+ZDUitaR5M8Z8gPq/lBexCyYJQBLswy17sQuswx6V24W1gd3ZRXisoQTwU32vUjKnuDELDHHIGwRHYcrae+wWJ0OPQ1+BHnIHWmTuruJgdTckzhaKBP7J7OgQIe51lL702ILXeMUhcr707P0vbxY2eOrELQfayF7sY2ndid3ZRXisoQTwU32toI3UNqjAwXY8N2Xdz2XXfWDPnUHEG/g4xy6+r/ri6bYONcsQZLEnhDATd5ht52ObvMD4TJKyzz4KGbO8LEllXtVAEG8ta7UKOw27w5RXsomNPduH3bY8rsTe70HNif29xjkBBPBTf69SfthADNUvZKOtpmQpvGuNUKs5ACPuu5u/qGtpvWvJDX7czUOY/ejURO/Et+7MvqT+zAak1BQml90/CPCu1i1CHqb/mDLGLyvWV+jdtF0IQGLd9VNN3ZBd6/rLJrIiHKjsWD3OpKPIVUHUGY7yAM5jEZ4LETsAusIsa2MXY71A/fxNb0A/iYQ5Boa9LQNzuSqYcl7n7WZEz6O4W5Pjt+OQg8jvSHQZBogp2gV3UwC6Gfkf3e2eLq52CeAAAAIBZIB4AAABgFogHiFza80Hf9H4n7jLEo92IY+OPdDUCACwN4gHmcflovx0/2r9xtY4G9K8KhzlMERkAAHAvEA8wjwnioXys9fEUj1cBAMDDQDxslm4Y4tyc2tOhW76dUsj/234cv7Ufp3NM0+EKO2zRV1bL3badmlqw7t4nUGiHMIxxuC4pvSY0dEZ4JwRcj4J7Fr54FnslM8IBALYO4mGzqAA4tedb5JV1EQwhukYRkAV/Lx5MWe1tSGmjPQ+VIYTiJSt2WMPnt+v+u6sjEx2+HgAAeBSIh81ixUDHpbE9CElIJLx4sGVN/s+IB+11qPQupE23ngapPht+MHVV6shBPAAALAXiYbPUxUPXm7Au8dD1TGgZLet7KBAPAABrA/GwWbwA0HU7bPEF8ZCleSpzHvywRTGMEcVE4wWCEQS1oQ+bV9OZ8wAAsAiIh82iAsBMbszmP3xBPAjag9E/YVLjeOVpixD8ywmTV+KEyny7601wddgJkzxtAQCwHIiHzeIFwJJo0M97Fh4LQxYAAEuCeNgszxQPQuhJWEJAqHCo9GQAAMDDQDwAAADALBAPAAAAMAvEAwAAAMwC8QAdf05te5JlUfSxziUnVgIAwD1APEDHwuIhPM4ZHrlEPAAAvBqIh80iEVkCdPvetO0/B1nkU1GRENbj8q6RW/OabW/66IIsqUzArtfqjulvpp5Q9xD0PAAAvCKIh80SBUEQAgkvCKII+CNfi56HMfFQq1u2/YqrQaTY8jUQDwAArwjiYbMYYZD4JcE89QrYRQP+bPHg6i7y1/J4EA8AAK8I4mGz9IiHrLfAgHgAAICJIB42S1+Ajz0NiXfJk3oeCrFgyodeC8QDAAAgHjZMT/AOIsEOW5iAnyY7pt4JFRYp39t9xcPtaYu48I+YAAAvA+IBAAAAZoF4AAAAgFkgHgAAAGAWiAcAAACYxY7Fg5vgd51IOPCEwLkxr1M+t82h0VoWJt/vuUmTDqc8taBlnzVBUfb9XY9bP+VY/4tbf8qxfNfltm0crSOW+5F+R73+x+Anh1pk/9jFDOrXDbu4F/l+sYshu5Dv8lub5S/SS0LPQ0DMafSxQjUs2+B0fR3OoDD2y6k9pkZfcxIqgp7mDC7t6Yc5fnEGze+4Yrj8e4xOIi4/K2f6t/yOwhnk9T8Gqf0FgkS/E9S8lXTs4otI7a9oF5m/2LtdPOs6vR6Ih4CYSm+j7wiPFmataq3OQBrD0WyrNfynOAM5rp+6z3FnEO4uro28I2zzDiFzBvX6H4PU/rLiQe3j2B6tjSSwiy8itb+cXWi6ucEIQsId587sQn39cbxbZvcwbKHYP3Oq/rOkGFjhbLtG2UhjTIo9MzhtcFU139XVnyYN+ZTKRqN2dV23hyR3XNr4s4Ye68xa1jOcQZ3CGfwnxx/uCDxyvn1XZeYMpiA57R+A6XJ9YZbsUe2h74+9ild7DweJ1dlFJG2vpmMXt2U3dtEd122TXxf2ZhfehwZBJXWt4QSsCMRD8b1GpUGFbbYh6no0sMLYTJonU/rRUWSt25fNj+UR4kHrzJ1PXMyOpuSZQuEMtIHXuhyFat5ZQcKRvVVT9qnOPwWNIs0Oa+n6UJBYoV0I9o6qlo5dRHZmF12d6VpV9rs7u8jPWXl9QEE8FN9rOGMKlNu0gQTnrI3NNYqs0Wp61oisM3BGWtQ14gzU0L8oHpZk8SDRe6co+8xsQGpN82CK/wTxeS0rtQuXv0hXsAuz7MQuQh3muAr/IezOLsprBSWIh+J7jZox1Z1BaJhDziA4AlvO1rMO8aB15s4qLmZHU/JMoWjgj+yeDgHCXmfZS68NSK13DBLXa+/Oz1J2UbwOPC5F1zl2IchedmIXg/tO7M4uymsFJYiH4nsNbaSuQRUGpuuxIftuLrvuG2vmHCrOIJQ1+8ny66o/LnestYY/4gyWpHAGgm7zjTxs83cYnwkS1tlnQUO29wWJrKtaKIKNZa12kVNNxy469mQXft/2uBJ7sws9J/b3FucIFMRD8b1O/WkLMVCzlI2ynpap8KYxTqXiDITsrjHL39WV7VfJ9l0x+pU7A2X+o1cTsRPfsj/7kvozG5BaU5BQev8kzLNiuzBU07GLyvWV+rduF0Fg3Paxd7vQ85f1yCEequxYPMyloshXwFiQqPICzmASnwkSOwG7wC5qYBdjv0P9/E1sQT+IhzkEhb4uAXG7K5lyXObuZ0XOoLtbkOO345ODyO9IdxgEiSrYBXZRA7sY+h3d750trnYK4gEAAABmgXgAAACAWSAeIHJpzwd90/uduMsQj3Yjjo0/0tUIALA0iAeYx+Wj/Xb8aP/G1Toa0L8qHOYwRWQAAMC9QDzAPCaIh/Kx1sdTPF4FAAAPA/GwWbphiHNzak+Hbvl2SiH/b/tx/NZ+nM4xTYcr7LBFX1ktd9t2amrBWp89rwwjhGGMw3VJ6TWhoTPCOyHgehTcs/DFs9grmREOALB1EA+bRQXAqT3fIq+si2AI0TWKgCz4e/FgympvQ0ob7XmoDCEUL1mxwxo+v133310dmejw9QAAwKNAPGwWKwY6Lo3tQUhCIuHFgy1r8n9GPGivQ6V3IW269TRI9dnwg6mrUkcO4gEAYCkQD5ulLh663oR1iYeuZ0LLaFnfQ4F4AABYG4iHzeIFgK7bYYsviIcszVOZ8+CHLYphjCgmGi8QjCCoDX3YvJrOnAcAgEVAPGwWFQBmcmM2/+EL4kHQHoz+CZMaxytPW4TgX06YvBInVObbXW+Cq8NOmORpCwCA5UA8bBYvAJZEg37es/BYGLIAAFgSxMNmeaZ4EEJPwhICQoVDpScDAAAeBuIBAAAAZoF4AAAAgFkgHgAAAGAWiAfo+HNq25Msi6KPdS45sRIAAO4B4gE6FhYP4XHO8Mgl4gEA4NVAPGwWicgSoNv3pm3/Ocgin4qKhLAel3eN3JrXbHvTRxdkSWUCdr1Wd0x/M/WEuoeg5wEA4BVBPGyWKAiCEEh4QRBFwB/5WvQ8jImHWt2y7VdcDSLFlq+BeAAAeEUQD5vFCIPELwnmqVfALhrwZ4sHV3eRv5bHg3gAAHhFEA+bpUc8ZL0FBsQDAABMBPGwWfoCfOxpSLxLntTzUIgFUz70WiAeAAAA8bBheoJ3EAl22MIE/DTZMfVOqLBI+d7uKx5uT1vEhX/EBAB4GRAPAAAAMAvEAwAAAMwC8QAAAACzQDwAAADALHYsHtwEv+tEwoEnBM6NeZ3yuW0OjdayMPl+z02adDjlqQUt+6wJirLv73rc+inH+l/c+lOO5bsut23jaB2x3I/0O+r1PwY/OdQi+8cuZlC/btjFvcj3i10M2YV8l9/aLH+RXhJ6HgJiTqOPFaph2Qan6+twBt7Ybw5Cl4qTUBH0NGdwaU8/zPGLM2h+xxXD5d9jdBJx+Vk507/ldxTOIK//MUjtLxAk+p2g5q2kYxdfRGp/UbvInn4qHcqO7OJZ1+n1QDwExFR6G31HaFxZo1qrM5B029BrDf8pzkAa6U/d57gzCHcX10beEbZ5h5A5g3r9j0Fqf1nxIOfneGyPx0o6dvFFpPYXtIvg24au+87sQs/HcbxbZvcwbKHYP3Oq/rOkGFjhbLtG2UhjTIo9MzhtcEnJy3Ir29XVn3aUQ0hlo1G7uq7bQ1LpDHLkOFchHuoUzuC/U3sMdwQe+R2+qzJzBlOQnPYPwHS5vjBL9qj20PfHXsWrvYeDxFrtIm2vpmMXt2U3dtEdV7bJsze7uEid9vfq+qRhnn2BeCi+16g1MN1mG6KuRwMrjM2keULeVHd0FFnr9mXzYxkTD2WPiTDiDLTO3PnExdQzJc8UCmegDbzW5ShU884KEo7srZqyT3X+KWgUaXZYS9eHgsQ67cLeUVXtBrvo2JNdhPrya1Xcde/OLvJzVl4fUBAPxfcazpgC5TZtIKHhaWNzjSJrtJqeNSLrDJyRFnWNOANLX6MfcQZLsniQ6L1TlH1mNiC1SrANgaH4TxCf17JSu3D5q3aDXZhlJ3ahgTG75pq/Uueu7KK8VlCCeCi+16gZU90ZhIY55AyCI7DlbD33Ew+D45gjzkDrzJ1VXMyOpuSZQtHAH9k9HQKEvc6yl14bkFrvGCSu196dn6XsIthD5Xpld5nYRUT2shO7KMVDJc/u7KK8VlCCeCi+19BG6hpUYWC6Hhuy7+ay675xZ86h4gxCWbMf50yKhi6EhjrUKEecwZIUzkDQbb6Rh23+DuMzQcI6+yxoyPa+IJF1VQtFsLGs1y4s1XTsomNXduF9mzmuxN7sQs+h/b3++kAA8VB8r1POHdBGJgZqliw5GFw9LQT3lNY0xqlUnIGQ3TVm+bu6hvablvzQ1+0MlPmPXk3ETnzL/uxL6s9sQGpNQULp/ZMwz0rtwlFNxy4q11fq37xd5Me2d7vQ85f1yCEequxYPMyloshXwFiQqPICzmASnwkSOwG7wC5qYBdjv0P9/E1sQT+IhzloI1qZgLjdlUw5LnOHsSJn0N0tyPHb8clB5HekOwyCRBXsAruogV0M/Y7u984WVzsF8QAAAACzQDwAAADALBAPELm054O+6f1O3GWIR7sRx8Yf6WoEAFgaxAPM4/LRfjt+tH/jah0N6F8VDnOYIjIAAOBeIB5gHhPEQ/lY6+MpHq8CAICHgXjYLN0wxLk5tadDt3w7pZD/t/04fms/TueYpsMVdtiir6yWu207NbVg7V86EwnDGIfrktJrQkNnhHdCwPUouGfhi2exVzIjHABg6yAeNosKgFN7vkVeWRfBEKJrFAFZ8PfiwZTV3oaUNtrzUBlCKF6yYoc1fH677r+7OjLR4esBAIBHgXjYLFYMdFwa24OQhETCiwdb1uT/jHjQXodK70LadOtpkOqz4QdTV6WOHMQDAMBSIB42S108dL0J6xIPXc+EltGyvocC8QAAsDYQD5vFCwBdt8MWXxAPWZqnMufBD1sUwxhRTDReIBhBUBv6sHk1nTkPAACLgHjYLCoAzOTGbP7DF8SDoD0Y/RMmNY5XnrYIwb+cMHklTqjMt7veBFeHnTDJ0xYAAMuBeNgsXgAsiQb9vGfhsTBkAQCwJIiHzfJM8SCEnoQlBIQKh0pPBgAAPAzEAwAAAMwC8QAAAACzQDwAAADALBAP0PHn1LYnWRZFH+tccmIlAADcA8QDdCwsHsLjnOGRS8QDAMCrgXjYLBKRJUC3703b/nOQRT4VFQlhPS7vGrk1r9n2po8uyJLKBOx6re6Y/mbqCXUPQc8DAMArgnjYLFEQBCGQ8IIgioA/8rXoeRgTD7W6ZduvuBpEii1fA/EAAPCKIB42ixEGiV8SzFOvgF004M8WD67uIn8tjwfxAADwiiAeNkuPeMh6CwyIBwAAmAjiYbP0BfjY05B4lzyp56EQC6Z86LVAPAAAAOJhw/QE7yAS7LCFCfhpsmPqnVBhkfK93Vc83J62iAv/iAkA8DIgHgAAAGAWiAcAAACYRa940K5kAAAAAA/iAQAAAGaBeKjiJ/8BAABAAvFQBfEAAADQB+KhCuIBAACgj32LB//Og+sfOTnxYP/syb44qbe8cDm1R/4xEgAANsiOxcPQS41Mmn+ls66HNzQOlddVxAMAAGyT/YqHoT+JssLg2rtghYIwWB4AAGC77Fs89P1JVNGroOg2IxAGywMAAGyXnQ9buJ6C9CdRVjxct0V0PcxtGCovMGwBAAAbhQmTqTchLKm3wYgHn8f+bXVveQHxAAAAG2Xf4gEAAABmg3gAAACAWfSKBwAAAIAaiAcAAACYBeIBAAAAZoF4gA59csQ+SfJowtMohzC35sBTKQAALwXiAToWFQ+X9nQ8tE16x9a5aQ/Hk77gGwAAXgDEw2aRUKz/tfHe5O+g8O+mCC+80rxmW3hzpnnXRcCu1+qO6fZPxOwfhVm01yETCyom6H0AAHgVEA+bJQqC7BXaXhBEEaB/5lX0PIyJh1rdsi29YTOIFFvegHgAAHhpEA+bxQiDxNCfec0WD67uIn8tTwTxAADw0iAeNkuPeOj7My/EAwAATATxsFn6AnzsaUikP/Mqhhk0rykfei3uJB6CWGDCJADAq4J42Cw9wTuIBDtsYQJ+muyYeidUWKR8b/cUDwKPagIAvCyIBwAAAJgF4gEAAABmgXgAAACAWSAeAAAAYBaIB7gD5/b/Hpr2/8W1WVxO7e/Dof0/h2P7P7MmTX5hn4ty7+O8tP9z7DtXr3JOAODVQTzsAgkq4blICTzNqf3fbuMd+WzQGgqEd0CFyfERv3cOS4oHAIAlaNv/H1sUhZ3BBXB4AAAAAElFTkSuQmCC;" vertex="1" parent="1">
          <mxGeometry x="1010" y="380" width="381.58" height="521" as="geometry" />
        </mxCell>
        <mxCell id="DzFFAU3qwcf-lBZUktXT-61" value="CheckVic()" style="shape=umlFrame;whiteSpace=wrap;html=1;width=120;height=30;boundedLbl=1;verticalAlign=middle;align=left;spacingLeft=5;" vertex="1" parent="1">
          <mxGeometry x="971.5799999999999" y="350" width="420" height="570" as="geometry" />
        </mxCell>
      </root>
    </mxGraphModel>
  </diagram>
</mxfile>
